<?xml version="1.0" standalone="no"?>
<!DOCTYPE svg PUBLIC "-//W3C//DTD SVG 1.1//EN" "http://www.w3.org/Graphics/SVG/1.1/DTD/svg11.dtd" >
<svg>
<metadata>
Created by FontForge 20110222 at Mon Mar  7 08:37:12 2011
 By www-data
Generated by Fontographer 3.5
</metadata>
<defs>
<font id="Stonehenge" horiz-adv-x="721" >
  <font-face 
    font-family="Stonehenge"
    font-weight="5"
    font-stretch="normal"
    units-per-em="1000"
    panose-1="0 0 0 0 0 0 0 0 0 0"
    ascent="800"
    descent="-200"
    x-height="392"
    cap-height="700"
    bbox="-119 -332 1416 938"
    underline-thickness="20"
    underline-position="-190"
    unicode-range="U+0020-2122"
  />
    <missing-glyph />
    <glyph glyph-name=".null" unicode="&#xd7;" horiz-adv-x="0" 
 />
    <glyph glyph-name=".null" unicode="&#x141;" horiz-adv-x="0" 
 />
    <glyph glyph-name=".null" unicode="&#xfd;" horiz-adv-x="0" 
 />
    <glyph glyph-name="space" unicode=" " horiz-adv-x="500" 
 />
    <glyph glyph-name="space" unicode="&#xa0;" horiz-adv-x="500" 
 />
    <glyph glyph-name="exclam" unicode="!" horiz-adv-x="198" 
d="M160 717l-3 -10l-3 -9l-4 -14q-6 -24 -9 -48t-3 -35v-385l3 -23l12 -22h-45h-46q6 7 11.5 20t3.5 25l-18 347q0 46 -49 74l-10 5q35 4 56 13.5t72 41.5zM147 6q-17 -17 -39 -17q-21 0 -37.5 16.5t-16.5 38.5t17 38t37 16q21 0 38 -16t17 -38q0 -23 -16 -38z" />
    <glyph glyph-name="quotedbl" unicode="&#x22;" horiz-adv-x="237" 
d="M211 700l-10 -30q-8 -29 -11 -58t-3 -60h-18q0 31 -1.5 54.5t-13.5 63.5l-8 30h65zM99 700l-9 -30q-8 -29 -11 -58t-3 -60h-19q0 39 -2 61t-11 57l-10 30h65z" />
    <glyph glyph-name="numbersign" unicode="#" horiz-adv-x="513" 
d="M513 448l-14 -44h-100l-46 -140h102l-15 -44h-101l-72 -220h-45l72 220h-147l-72 -220h-44l72 220h-111l15 44h110l46 140h-112l14 44h112l83 252h45l-83 -252h146l83 252h45l-83 -252h100zM354 404h-146l-47 -140h147z" />
    <glyph glyph-name="dollar" unicode="$" horiz-adv-x="568" 
d="M533 653l-4 -9l-2 -4l-12 -28l-6 -11q-4 -10 -7.5 -24.5t-3.5 -34.5l-13 14l-2 3l-14 23q-8 14 -19 25.5t-32 29.5q-43 34 -86 41l-7 2l-9 1v-300l11 -2l11 -2q37 -8 63.5 -18.5t55.5 -26.5q77 -46 77 -129q0 -35 -17.5 -70t-53.5 -65q-14 -13 -15 -13q-8 -4 -11 -5
q-70 -46 -121 -46v-52q0 -39 10 -67h-29h-28q10 31 10 67v47h-14h-13q-31 0 -60 5t-65 15l-49 18l6 14l2 2l19 43v40l5 22q6 -7 12 -19.5t14 -33.5t37.5 -42.5t69.5 -31.5l19 -3l7 -1h10v294l-13 2l-13 3q-51 10 -92 28q-27 12 -44 22.5t-32 23.5q-51 42 -51 110
q0 44 24 85.5t70 68.5q24 14 53.5 23t71.5 14l26 1q-6 20 -15.5 36.5t-33.5 47.5l-10 14h96v-98l16 -1l17 -1q46 -4 93 -16t91 -31zM279 390v292l-17 -2q-46 -5 -73 -13.5t-51 -24.5q-50 -33 -50 -91q0 -51 41 -91q21 -21 54 -38t76 -27l10 -3zM432 257q-20 17 -43 28.5
t-57 20.5l-16 4v-283l41 6q19 4 41 16q37 19 56.5 50t19.5 68q0 52 -42 90z" />
    <glyph glyph-name="percent" unicode="%" horiz-adv-x="713" 
d="M363 550q0 -59 -30.5 -101t-84.5 -56q-25 -7 -53 -7q-69 0 -114.5 46.5t-45.5 117.5q0 59 30.5 100.5t84.5 57.5q25 7 52 7q69 0 115 -47t46 -118zM622 700l-419 -597l-15 -25q-5 -8 -10.5 -16.5t-18.5 -25.5l-18 -36h-28h-27l14 17l13 16l34 44l13 18l5 8l307 436l9 14
q30 48 37.5 65.5t7.5 44.5l-1 37h97zM678 147q0 -59 -30.5 -100.5t-84.5 -57.5q-25 -7 -52 -7q-69 0 -115 47t-46 118q0 59 31 101t84 56q25 7 53 7q69 0 114.5 -46.5t45.5 -117.5zM307 550q0 71 -31 110t-77 39q-45 0 -75 -38q-33 -42 -33 -115q0 -18 5 -40
q11 -52 38 -78.5t65 -26.5q45 0 76.5 39t31.5 110zM621 147q0 71 -31 110.5t-76 39.5q-43 0 -76 -39.5t-33 -103.5q0 -24 6 -51q11 -52 38.5 -78.5t64.5 -26.5q46 0 76.5 39t30.5 110z" />
    <glyph glyph-name="ampersand" unicode="&#x26;" horiz-adv-x="1094" 
d="M1087 670q-22 -4 -39 -17l-25 -22l-18 -13q-32 10 -52 10q-32 0 -92 -20l-96 -35q-77 -28 -117.5 -39.5t-96.5 -19.5l6 8l3 4q6 7 13.5 14.5t21.5 19.5q6 5 10.5 16t6.5 32q18 0 30.5 -4t49.5 -24q6 -3 15 -3q18 0 69 18l73 26l8 3l31 13l45 16q58 23 103 23q24 0 51 -6z
M1035 78q-13 -25 -36.5 -41t-69.5 -29q-10 -3 -22.5 -6t-29.5 -3q-92 0 -140 29q-55 33 -115 137l-7 14l-3 7l-4 10l-16 -36q-44 -86 -100 -125.5t-140 -39.5q-100 0 -177 57q-82 61 -120 174q-20 60 -20 122q0 105 64 194q59 83 136 125.5t156 42.5q89 0 159 -52
q0 -12 -5.5 -16.5t-29.5 -14.5l-30 -48l-21 -25l6 32q3 17 3 31q0 63 -84 63q-17 0 -40 -3q-60 -7 -112 -54t-83 -129q-6 -15 -9.5 -27.5t-7.5 -32.5q37 61 98.5 94.5t131.5 33.5q50 0 95 -16.5t84.5 -51.5t65.5 -77.5t53 -119.5l8 -22l16 -49q19 -57 39 -89.5t51 -58.5
q61 -52 127 -52q19 0 36.5 4t30.5 9t23 11l4 2l26 19zM586 284q0 93 -44 157.5t-122 89.5q-33 10 -70 10q-38 0 -71 -10q-77 -24 -121.5 -89t-44.5 -158q0 -95 43.5 -158.5t122.5 -88.5q13 -5 33.5 -8t37.5 -3q21 0 35.5 2t34.5 9q77 23 121.5 88.5t44.5 158.5z" />
    <glyph glyph-name="quotesingle" unicode="'" horiz-adv-x="128" 
d="M107 700l-10 -30q-8 -29 -11 -58t-3 -60h-18q0 31 -1.5 54.5t-13.5 63.5l-8 30h65z" />
    <glyph glyph-name="parenleft" unicode="(" horiz-adv-x="194" 
d="M188 782q-26 -50 -46.5 -113.5t-32.5 -136.5q-8 -43 -12 -99t-4 -104q0 -95 21.5 -191t61.5 -189l-17 -13l-15 -14l-17 -12l-15 -14q-43 86 -59.5 185.5t-16.5 257.5q0 175 37 275q33 89 115 168z" />
    <glyph glyph-name="parenright" unicode=")" horiz-adv-x="194" 
d="M158 337q0 -173 -37 -274q-33 -90 -114 -167q53 102 80 249q7 45 10.5 96.5t3.5 106.5q0 95 -21.5 191t-61.5 188l17 14l17 13l15 14l16 13q44 -86 59.5 -183.5t15.5 -260.5z" />
    <glyph glyph-name="asterisk" unicode="*" horiz-adv-x="353" 
d="M325 567l-107 -13l81 -69q-3 1 -6 1h-5q-23 0 -45 -14q-11 -8 -18 -19t-11 -26l-39 97l-44 -97q-5 29 -27 46t-52 17l81 66l-105 9q39 31 39 81q0 6 -2 20l92 -64l-29 109q13 -8 23.5 -11.5t23.5 -3.5q33 0 55 15l-31 -111l96 65q-5 -14 -5 -16v-12q0 -43 35 -70z" />
    <glyph glyph-name="plus" unicode="+" horiz-adv-x="555" 
d="M458 305q-47 12 -116 17q-22 1 -59 2q0 -36 2.5 -78.5t15.5 -96.5h-55q12 47 16 116q1 22 2 59q-36 0 -78.5 -2.5t-97.5 -15.5v55q48 -12 117 -16q22 -1 59 -2q0 36 -1 58q-4 63 -17 117h55q-12 -47 -14.5 -92.5t-3.5 -82.5q36 0 58 1q63 4 117 17v-56z" />
    <glyph glyph-name="comma" unicode="," horiz-adv-x="157" 
d="M127 43q0 -26 -8 -49t-32 -55q-22 -32 -59 -52q31 25 31 62q0 12 -4.5 27.5t-8.5 21.5q-15 26 -21 54q-3 20 10 36t34 16q22 0 40 -17t18 -44z" />
    <glyph glyph-name="hyphen" unicode="-" horiz-adv-x="331" 
d="M309 260l-39 -68h-249l39 68h249z" />
    <glyph glyph-name="period" unicode="." horiz-adv-x="200" 
d="M143 6q-17 -17 -39 -17q-21 0 -37.5 16.5t-16.5 38.5t17 38t37 16q21 0 38 -16t17 -38q0 -23 -16 -38z" />
    <glyph glyph-name="slash" unicode="/" horiz-adv-x="531" 
d="M531 772l-427 -740l-13 -24q-11 -22 -20 -41.5t-15 -36.5h-28h-28l11 16l12 18l16 23l13 20l6 11l8 14l336 580l6 13q20 41 26.5 63.5t6.5 46.5l-7 37h97z" />
    <glyph glyph-name="zero" unicode="0" horiz-adv-x="532" 
d="M491 444q13 -59 13 -120q0 -91 -27.5 -166.5t-72.5 -116.5q-62 -57 -140 -57q-56 0 -106 31.5t-80 90.5q-25 48 -37.5 102.5t-12.5 116.5q0 60 13 115.5t37 102.5q30 60 79.5 92t107.5 32q77 0 138.5 -56.5t87.5 -166.5zM416 229q4 19 6 45.5t2 50.5q0 17 -0.5 38
t-7.5 57q-12 70 -25.5 106.5t-36.5 64.5q-38 47 -88 47t-89 -47q-21 -27 -34.5 -64.5t-26.5 -109.5q-8 -50 -8 -92q0 -46 10.5 -105t24 -96.5t34.5 -64.5q38 -47 89 -47t88 46q21 27 36 65.5t26 105.5z" />
    <glyph glyph-name="one" unicode="1" horiz-adv-x="284" 
d="M197 0h-111q11 19 15 37t4 50v487q0 7 -12.5 12.5t-39.5 5.5l-14 -2l61 47l42 28q4 2 13.5 0.5t14.5 -9.5t7 -17.5t2 -18.5v-533q0 -34 3 -49.5t15 -37.5z" />
    <glyph glyph-name="two" unicode="2" horiz-adv-x="499" 
d="M491 101l-14 -25q-22 -39 -31 -62.5t-15 -55.5l-12 7q-38 19 -70.5 27t-76.5 8h-254l38 30l40 34q153 133 226 242q66 99 66 178q0 42 -20 79.5t-55.5 59.5t-76.5 22q-33 0 -66 -15l19 -112l-10 2l-16 4q-32 6 -51 6h-19q-1 0 -22 -4l-17 -2l-7 -1q26 70 93 109t164 39
q70 0 112.5 -41.5t42.5 -109.5q0 -41 -16 -83q-21 -56 -49 -102t-80 -106q-31 -35 -64 -67t-83 -74l-23 -18l-17 -14h233q31 0 53 6t51 24l19 10z" />
    <glyph glyph-name="three" unicode="3" horiz-adv-x="534" 
d="M450 472q-18 -19 -43 -34.5t-63 -31.5l-29 -9l9 -3l8 -3q31 -12 68 -38l25 -20q40 -34 59 -72.5t19 -80.5q0 -47 -25.5 -88t-73.5 -67q-66 -36 -146 -36q-12 0 -26.5 1.5t-22.5 2.5q-88 14 -124.5 29.5t-57.5 43.5l28 7q50 13 78 27l9 5l10 6q-1 -4 -1 -13q0 -38 25 -64
t64 -26q40 0 75 17.5t61.5 55.5t26.5 96q0 23 -1.5 33t-6.5 28q-17 68 -76 110q-25 16 -50.5 25.5t-51.5 9.5l12 2l10 2q9 2 20.5 6.5t30.5 12.5q8 3 17 8t14 8q35 21 52 49t17 58q0 47 -38 76q-34 25 -69.5 37.5t-67.5 12.5q-28 0 -46 -21t-14 -49q5 -36 34 -55l-10 4
l-18 7q-32 10 -52.5 14t-50.5 4l-23 1h-4q37 54 96 82.5t140 28.5q36 0 69.5 -5.5t58.5 -14.5q40 -16 61.5 -45.5t21.5 -63.5q0 -39 -28 -70z" />
    <glyph glyph-name="four" unicode="4" horiz-adv-x="521" 
d="M505 270l-85 -37h-44v-146q0 -28 1 -38.5t7 -27.5l10 -21h-111l10 21q6 20 7 33.5t1 32.5v146h-273l7 10l6 8q10 15 23.5 39.5t22.5 45.5q6 14 13.5 36t10.5 32q20 78 20 120q0 43 -18.5 67t-57.5 41l-24 11l51 9l5 1l30 4q15 2 27 4.5t34 10.5l12 5q7 1 9 1
q10 -2 14.5 -8t4.5 -22q0 -31 -34 -197l-17 -57q-14 -41 -24.5 -66t-17.5 -38l-4 -8l-6 -12h186v267q0 17 -10 34t-36 39l-9 6q20 4 38 10.5t35 15.5l51 35l9 5l23 16l-3 -10l-4 -10l-7 -19q-12 -42 -12 -82v-307h129z" />
    <glyph glyph-name="five" unicode="5" horiz-adv-x="532" 
d="M489 183q-16 -116 -110 -168q-50 -29 -128 -29q-35 0 -66 5.5t-67 18.5q-28 9 -46.5 19.5t-38.5 26.5l-9 8l-8 8q56 0 96 40l6 7l5 4q5 -21 6 -23q3 -7 7 -13q34 -67 99 -77q18 -2 27 -2q55 0 92 36t52 110q4 17 5 32t1 35q0 93 -46 142t-133 49q-25 0 -53 -4t-61.5 -14
t-65.5 -26v239q0 5 7 15.5t25 25.5q23 19 43 19h351l-8 -5q-24 -16 -37.5 -36.5t-22.5 -55.5l-2 -11l-19 22q-31 31 -55 41t-65 10h-134v-205l17 3l20 2l43 3q137 0 206.5 -54t69.5 -155q0 -20 -3 -43z" />
    <glyph glyph-name="six" unicode="6" horiz-adv-x="516" 
d="M506 667l-6 -4l-11 -8q-37 -26 -55 -74l-4 -13l-3 -9q-14 22 -35 40q-44 33 -88 33q-47 0 -86 -33.5t-65 -102.5q-15 -38 -20.5 -111.5t-5.5 -179.5q0 -19 1 -27q6 -26 7 -36q27 -133 120 -133q21 0 48 8q72 22 96 117q8 30 8 60q0 14 -1 21q-6 70 -39 108t-82 38
q-31 0 -68 -17l-26 -12q17 28 44.5 42.5t67.5 14.5q19 0 49 -5q63 -12 100.5 -55.5t37.5 -104.5q0 -45 -22 -92q-14 -29 -38 -58q-35 -41 -77.5 -61.5t-90.5 -20.5q-93 0 -151 60q-61 63 -74 180l-3 55q0 166 101 273t250 107h121z" />
    <glyph glyph-name="seven" unicode="7" horiz-adv-x="452" 
d="M485 667l-7 -8l-6 -7l-16 -18l-17 -22l-22 -26l-21 -28q-49 -64 -72.5 -112.5t-43.5 -127.5l-17 -86q-7 -43 -11 -94.5t-4 -137.5l-15 -5l-12 -3l-14 -4l-38 -10l-7 -2l-22 -6q0 51 10 106t30 133l30 103q30 90 55 137t86 125l25 29l12 14l14 15h-227q-47 0 -74.5 -7
t-64.5 -28l-20 -12l-9 -6l17 27q25 40 35 62.5t16 54.5l5 -5l7 -5q53 -46 149 -46h249z" />
    <glyph glyph-name="eight" unicode="8" horiz-adv-x="532" 
d="M491 109q-22 -58 -80.5 -92t-145.5 -34q-85 0 -143.5 34t-80.5 92q-15 38 -15 72q0 117 129 171l21 8l8 2l8 2l-15 4q-50 20 -77.5 59t-27.5 90q0 68 52.5 113t142.5 45q91 0 143 -44t52 -114q0 -51 -28 -90t-80 -59l-16 -4l9 -2l8 -2l20 -8q62 -26 96.5 -71.5
t34.5 -99.5q0 -34 -15 -72zM395 517q0 49 -23 85t-62 50q-24 9 -47 9q-53 0 -89.5 -40.5t-36.5 -105.5q0 -18 5 -41q12 -46 45.5 -73.5t76.5 -27.5q8 0 18.5 0.5t28.5 7.5q38 15 61 50.5t23 85.5zM421 179q0 80 -43.5 128.5t-109.5 48.5q-28 0 -59 -11q-44 -16 -72.5 -61
t-28.5 -106q0 -18 1 -26t6 -25q11 -45 34.5 -72.5t58 -39.5t61.5 -12q65 0 108.5 48.5t43.5 127.5z" />
    <glyph glyph-name="nine" unicode="9" horiz-adv-x="508" 
d="M482 426q3 -29 3 -56q0 -163 -101.5 -270.5t-251.5 -107.5h-123l8 4l10 8q39 26 55 74l5 13l3 9q14 -24 35 -40q44 -33 89 -33q47 0 86 33.5t65 102.5q16 40 21 107t5 184q0 21 -1.5 31.5t-6.5 31.5q-28 133 -121 133q-20 0 -47 -8q-72 -22 -99 -117q-4 -17 -5 -32.5
t-1 -38.5v-10q7 -70 40.5 -108t82.5 -38q31 0 68 17l25 12q-16 -28 -44.5 -42.5t-69.5 -14.5q-12 0 -20 1t-27 4q-63 12 -100.5 55.5t-37.5 104.5q0 46 22 93q6 12 16 27.5t21 29.5q36 42 78 62t91 20q93 0 153 -62t74 -179z" />
    <glyph glyph-name="colon" unicode=":" horiz-adv-x="192" 
d="M134 309q-15 -16 -38 -16t-38.5 16.5t-15.5 37.5t15 39q17 15 39 15q23 0 39 -16t16 -37q0 -22 -17 -39zM134 6q-15 -17 -38 -17q-22 0 -38 17t-16 38t15 38q18 16 39 16q22 0 38.5 -16.5t16.5 -37.5q0 -23 -17 -38z" />
    <glyph glyph-name="semicolon" unicode=";" horiz-adv-x="193" 
d="M134 309q-15 -16 -38 -16t-38.5 16.5t-15.5 37.5t15 39q17 15 39 15q23 0 39 -16t16 -37q0 -22 -17 -39zM152 43q2 -23 -6.5 -47t-32.5 -57t-60 -52q32 26 32 62q0 12 -5 29q-1 4 -4 10q-2 3 -7 12t-11 24t-7 28q-4 20 8.5 36t33.5 16q23 0 41 -17t18 -44z" />
    <glyph glyph-name="less" unicode="&#x3c;" horiz-adv-x="600" 
d="M517 -8l-434 187v76l434 187v-57l-389 -168l389 -164v-61z" />
    <glyph glyph-name="equal" unicode="=" horiz-adv-x="400" 
d="M367 335h-322v57h322v-57zM367 200h-322v57h322v-57z" />
    <glyph glyph-name="greater" unicode="&#x3e;" horiz-adv-x="600" 
d="M541 179l-434 -187v61l389 164l-389 168v57l434 -187v-76z" />
    <glyph glyph-name="question" unicode="?" horiz-adv-x="420" 
d="M399 514q0 -65 -29 -109t-91 -79t-62 -74q0 -28 29 -60l16 -17l2 -3l-25 1l-12 1l-43 4l-5 1l-32 -4l-19 2q5 41 25.5 70t95.5 99t75 176q0 73 -26.5 113.5t-72.5 50.5q-14 3 -27 3q-52 0 -89.5 -38.5t-37.5 -101.5q0 -31 6.5 -53.5t23.5 -45.5q-30 11 -51 33
q-38 44 -38 87q0 60 70 109q46 30 104 30q36 0 75 -12q81 -25 116 -96q22 -40 22 -87zM236 6q-15 -17 -38 -17q-22 0 -38.5 16.5t-16.5 38.5t17 38t38 16q22 0 38 -16t16 -38q0 -23 -16 -38z" />
    <glyph glyph-name="at" unicode="@" horiz-adv-x="817" 
d="M785 374q0 -65 -41 -112.5t-106 -47.5q-47 0 -74 11t-55 45q-16 19 -27 34q-3 5 -8 12q-4 -6 -7 -9q-28 -33 -52 -48.5t-49 -18.5q-33 -4 -57 18.5t-24 56.5t23.5 61t70.5 44q18 8 42 11l-17 36q-13 25 -38 25q-10 0 -18 -4q6 6 12 11t18 12l6 4q10 5 13 28l5 -5l4 -5
q6 -6 13.5 -17.5t16.5 -28.5l7 -13q14 -37 23 -58q27 -62 56 -105q22 -33 37 -44q29 -21 79 -21q52 0 86 49q27 39 27 75q0 118 -34 185q-28 56 -88 90q-34 19 -118 47q-39 13 -100 13q-30 0 -59 -4t-52 -11q-99 -33 -165 -121q-73 -97 -73 -219q0 -142 70 -222
q60 -68 188 -110q38 -12 94 -12q65 0 115 16q62 20 81 30q51 26 105 111q8 -3 17 -5q5 -3 17 -10q-50 -82 -122 -124q-85 -49 -213 -49q-181 0 -286 108q-100 103 -100 267q0 163 107.5 275t278.5 112q176 0 275 -101q96 -98 96 -262zM470 325l-45 97q-16 0 -33 -6
q-70 -29 -70 -83q0 -29 16 -46t43 -17q19 0 32 6.5t32 22.5q6 5 12 11t13 15z" />
    <glyph glyph-name="A" unicode="A" horiz-adv-x="669" 
d="M689 0h-123q-15 44 -30 80t-47 106l-31 67l-21 43q-11 26 -21 44.5t-20 39.5l-8 16l-10 18l-20 -26l-15 -19l-83 -105l-102 -126l-83 -105l-35 -45q-13 51 -13 107q0 88 36.5 175.5t106.5 162.5q63 65 144 109l-5 12q-30 69 -62 101.5t-81 46.5l32 -1l13 -1l74 -2h12
q26 2 33 2q15 0 29 -27q29 -65 62 -138l75 -175l13 -31l60 -135q32 -75 58 -116q23 -36 62 -78zM370 430l-44 89q-34 -5 -63 -28.5t-80 -88.5q-22 -29 -38.5 -64.5t-24 -68.5t-9 -41.5t-1.5 -24.5q0 -17 -0.5 -30.5t-0.5 -24.5q0 -24 9 -33z" />
    <glyph glyph-name="B" unicode="B" horiz-adv-x="557" 
d="M515 173q-28 -79 -105 -123q-89 -51 -239 -51h-31.5t-30.5 -1h-23q-11 2 -15 2v581q0 95 -86 113l-9 2l19 7q23 5 40 5q73 0 99 -55q19 16 41.5 27.5t52.5 20t60 8.5q17 0 37 -3q35 -7 55.5 -28t20.5 -48q0 -17 -7.5 -34t-20 -32t-41.5 -39q-9 -9 -31 -23l-24 -15
l-16 -10l13 -1l15 -1l33 -5q98 -19 153 -77t55 -138q0 -40 -15 -82zM319 566q7 18 7 37q0 33 -20.5 56.5t-50.5 23.5h-19.5t-20.5 -2q-46 -10 -75 -41q9 -21 9 -44v-107l23 -3q55 0 94 22t53 58zM441 246q0 65 -37 115.5t-105 78.5q-34 14 -61 20.5t-46 6.5q-21 0 -32 -6.5
t-11 -13.5v-413q0 -7 15 -10.5t55 -3.5l34 6q93 23 140.5 80.5t47.5 139.5z" />
    <glyph glyph-name="C" unicode="C" horiz-adv-x="747" 
d="M733 700l-5 -4l-7 -7q-19 -18 -27.5 -37t-8.5 -50v-11q-37 39 -86 59t-119 20q-156 0 -252 -78t-111 -221q-2 -11 -2 -24v-20q0 -134 86 -222t212 -88h16q12 2 18 2q118 12 201 100q7 7 19.5 22.5t17.5 22.5l-1 -17l-1 -19v-18v-19q-53 -48 -118 -73.5t-145 -25.5
q-139 0 -229 50.5t-137 156.5q-15 36 -20.5 73.5t-5.5 88.5q0 151 107.5 244.5t286.5 93.5l37 1h274z" />
    <glyph glyph-name="D" unicode="D" horiz-adv-x="817" 
d="M777 293q-13 -71 -54.5 -134t-106 -108t-148.5 -62q-19 -3 -38 -5t-37 -2q-40 0 -79 9q-135 29 -210 114t-75 206q0 38 6 74q19 106 90.5 180.5t179.5 97.5q17 4 46 6t50 2q-14 -2 -30 -7t-35 -12q-110 -42 -170 -126t-60 -193q0 -25 3.5 -51t9.5 -49t16 -45
q34 -74 91.5 -119t133.5 -56q10 -2 23 -3t24 -1q127 0 209 102t82 268q0 151 -107 234q-110 86 -317 86l-47 1h-180l30 16q42 23 58.5 42t20.5 53l4 -7l9 -11q26 -30 51.5 -43t82.5 -23q11 -2 47 -5.5t78 -7.5q31 0 118 -31q114 -39 176 -121.5t62 -194.5q0 -24 -1 -36.5
t-6 -37.5z" />
    <glyph glyph-name="E" unicode="E" horiz-adv-x="761" 
d="M733 700l-6 -5l-5 -5q-18 -17 -28.5 -39t-10.5 -48v-12q-38 39 -85.5 59t-116.5 20q-21 0 -40 -0.5t-43 -4.5q-103 -17 -160.5 -61t-82.5 -106h381l25 2q76 10 122 47v-30v-56v-30l-21 14q-31 19 -58.5 26.5t-67.5 7.5h-389l-5 -12l-4 -11l-8 -26q-7 -29 -10.5 -55
t-3.5 -56q0 -91 42 -159.5t107 -105.5t143 -37q14 0 30 1.5t36 5.5q75 16 126.5 51.5t82.5 91.5v-37v-36q-73 -70 -184 -93q-60 -11 -108 -11q-151 0 -249.5 86t-112.5 225q-1 8 -1.5 15.5t-0.5 17.5q0 40 9 78q27 129 116 205q95 81 241 81l37 2h46h257z" />
    <glyph glyph-name="F" unicode="F" horiz-adv-x="470" 
d="M463 91l-6 -12q-27 -53 -68 -81q-23 26 -55 41.5t-71 21t-41 5.5q-9 1 -23 1q-33 0 -51 -20v-220q-47 -19 -77 -54v845q0 41 -43 72l-14 10h437q1 -6 1 -19q0 -35 -13 -65l-25 16q-50 29 -96 38.5t-119 9.5l-26 -2l-13 -1l-12 -1v-585h315z" />
    <glyph glyph-name="G" unicode="G" horiz-adv-x="753" 
d="M732 700l-6 -5l-6 -6q-18 -18 -26.5 -37.5t-8.5 -48.5v-12q-37 39 -85.5 59t-118.5 20q-157 0 -253 -78t-111 -222q-1 -13 -1.5 -22.5t-0.5 -17.5v-13q0 -130 85 -214q82 -81 201 -81q25 0 47 3t48.5 11.5t51.5 20.5t51 29l87 73v-175q0 -47 -20 -87.5t-56 -69.5
q-25 -19 -46.5 -29.5t-40.5 -14.5l10 10q77 77 77 180v67q-17 -8 -31 -13t-32 -10q-92 -24 -169 -24q-117 0 -198.5 52.5t-125.5 153.5q-15 35 -20.5 73.5t-5.5 88.5q0 151 107.5 244.5t286.5 93.5l37 1h273z" />
    <glyph glyph-name="H" unicode="H" horiz-adv-x="723" 
d="M695 352q0 -62 -16.5 -124t-46.5 -115q-36 -68 -75.5 -107t-93.5 -62l23 24q52 57 81.5 131t41.5 186q4 40 4 85q0 140 -56 212t-168 84q-27 3 -51 3q-78 0 -124.5 -28.5t-65.5 -82.5v-471q0 -31 3 -48.5t12 -38.5h-111q10 19 14 37t4 50v713q0 56 -29 83l-32 20l-27 18
q-1 1 -11 5.5t-20 7.5h197v-309l8 6l9 6q42 27 81 41q77 29 150 29q135 0 217 -97t82 -258z" />
    <glyph glyph-name="I" unicode="I" horiz-adv-x="220" 
d="M163 0h-111q10 19 14 37t4 50v479q0 43 -16.5 66.5t-67.5 53.5q-12 8 -35 14h197v-613q0 -30 3 -49t12 -38z" />
    <glyph glyph-name="J" unicode="J" horiz-adv-x="218" 
d="M148 87q0 -81 -35 -161q-42 -91 -114 -142l-8 -6l-9 -5l17 33q8 15 17.5 38t16.5 43q21 67 29 110.5t8 89.5v479q0 45 -15 66t-72 55q-9 6 -32 13h197v-613z" />
    <glyph glyph-name="K" unicode="K" horiz-adv-x="685" 
d="M714 74l-127 -90q-45 32 -83.5 80t-83.5 133l-17 34l-12 27l-19 42q-12 27 -24 46q-39 65 -91 97t-109 32v-388q0 -30 3 -49t12 -38h-111q10 19 14 37t4 50v709q0 40 -13 62.5t-48 43.5l-20 12l-5 2l-33 14h197v-431q6 -1 12 -1h13q18 0 26 2q111 12 170 93q35 47 41 107
h103q-44 -116 -170 -178q-9 -5 -16.5 -8.5t-21.5 -7.5l-14 -5l-22 -7l-23 -8l-13 -4q83 -31 137.5 -86t154.5 -213q36 -57 76.5 -83.5t91.5 -26.5q14 0 21 1z" />
    <glyph glyph-name="L" unicode="L" horiz-adv-x="481" 
d="M481 98l-10 -32l-10 -27l-10 -32l-11 -31q-39 11 -72 17t-82 6l-76 3l-33 1l-56 2l-34 1h-14h-21q10 18 14 36t4 50v712q0 40 -13 62t-48 44l-23 13l-6 4l-29 11h197v-885q12 -15 26 -21t41 -6t82.5 6.5t99 21.5t84.5 44z" />
    <glyph glyph-name="M" unicode="M" horiz-adv-x="1275" 
d="M1246 355q0 -134 -87 -235q-50 -59 -118 -92q-83 -41 -147 -41q-41 0 -74 17t-57 48l25 -14q28 -14 57.5 -21t57.5 -7q74 0 134.5 48t99.5 144q30 71 30 142q0 13 -1.5 28.5t-2.5 24.5q-19 127 -97 204q-74 72 -169 72q-90 0 -151 -57t-61 -131v-485h-77v455
q0 107 -52 166t-144 59h-30q-14 -3 -20 -4q-103 -18 -170 -97q-72 -85 -72 -208q0 -115 45.5 -199.5t136.5 -126.5q55 -26 105 -26q54 0 99 33q-20 -30 -49 -45.5t-70 -15.5q-58 0 -139.5 34.5t-134 94.5t-72.5 138q-14 54 -14 103q0 134 91.5 227.5t246.5 110.5q27 3 54 3
q83 0 147 -29.5t93 -77.5l4 -6l3 -7q34 36 75.5 62t89.5 39.5t94 13.5q131 0 226 -97t95 -245z" />
    <glyph glyph-name="N" unicode="N" horiz-adv-x="696" 
d="M626 -25q-13 9 -16 12q-6 5 -14 14l-18 22l-484 589v-444q0 -34 16.5 -75t44.5 -74l19 -19h-35h-63h-41q10 14 15 28t11 41l8 38v535l-20 18q-25 22 -38.5 29.5t-34.5 10.5h146l478 -581v443q0 37 -16 65t-54 57l-17 12l-6 4h119v-725z" />
    <glyph glyph-name="O" unicode="O" horiz-adv-x="828" 
d="M779 218q-37 -105 -135 -170t-230 -65q-172 0 -279 103t-107 264q0 160 106.5 263.5t279.5 103.5q171 0 279.5 -103.5t108.5 -257.5q0 -36 -5 -68t-18 -70zM707 350q0 125 -55.5 210.5t-150.5 117.5q-40 13 -87 13q-46 0 -86 -13q-95 -31 -149 -115q-57 -88 -57 -213
t55.5 -211t150.5 -117q44 -14 86 -14q43 0 87 14q95 31 150.5 117t55.5 211z" />
    <glyph glyph-name="P" unicode="P" horiz-adv-x="724" 
d="M685 299q-17 -80 -71 -147q-58 -73 -134 -111t-157 -38q-98 0 -177 55v-9v-21q0 -68 -6 -106q-13 -83 -32 -119t-61 -55l3 11l2 11q10 36 15 77t5 94v590q0 101 -110 155l-11 5l17 4q16 3 31 5t27 2q63 0 100 -61l7 -13q47 40 97 61q56 24 112 24q154 0 254 -90t100 -233
q0 -41 -11 -91zM595 262q14 63 14 126q0 136 -72 212t-194 76h-17q-12 -2 -18 -2q-11 0 -22 -2.5t-28 -7.5q-58 -18 -83.5 -40.5t-25.5 -47.5v-475q0 -18 22 -33q29 -20 88 -32q26 -6 51 -6q114 0 187.5 59.5t97.5 172.5z" />
    <glyph glyph-name="Q" unicode="Q" horiz-adv-x="830" 
d="M802 24l-10 -23q-19 -50 -27.5 -79t-8.5 -42q0 -9 3 -23l-8 -3l-16 -5l-24 -6t-18 -2q-9 0 -27 3t-27 4l-50 10l-7 1l-79 21q-24 5 -43.5 8t-44.5 5.5t-51 2.5q-73 0 -152 -35q-47 -21 -72.5 -42t-41.5 -51l4 22q13 70 30 115t45 85l16 22q4 5 19 20q-85 44 -135 129
t-50 187q0 65 23 134q36 105 133.5 170t230.5 65q172 0 279 -103t107 -264t-107 -264t-281 -103q-90 0 -173 36q-6 -4 -11 -9t-13 -14q-37 -37 -57 -77.5t-26 -86.5q25 21 38.5 31t38.5 25q50 30 97 44.5t97 14.5q76 0 205 -34q18 -5 40 -5q48 0 99 45q33 29 55 71zM707 350
q0 125 -55.5 210.5t-150.5 117.5q-40 13 -87 13q-46 0 -86 -13q-95 -31 -149 -115q-57 -88 -57 -213q0 -94 31 -164.5t90 -116.5l15 14l16 14q56 50 118 88q66 41 157 78l65 25l-14 -14q-34 -36 -47.5 -62.5t-13.5 -55.5l-43 -8q-94 -20 -138 -41t-86 -61l27 -13
q59 -24 117 -24q95 0 170.5 58.5t103.5 159.5q17 57 17 123z" />
    <glyph glyph-name="R" unicode="R" horiz-adv-x="591" 
d="M633 0h-182l-30 44l-3 4l-50 51l-51 59l-28 35l-14 17l-23 31l-12 12q-32 29 -45.5 38.5t-29.5 15.5q-7 3 -13 0q-5 -2 -5 -6v-214q0 -15 0.5 -28t7.5 -38q3 -11 7 -21h-110q10 19 14 37t4 50v481q0 75 -64 119l-11 7l-6 4h17q59 0 88 -14.5t39 -47.5q14 12 20.5 18
t20.5 15q45 28 90 38q32 6 58 6h16q10 -2 15 -2q56 -10 89 -44.5t33 -83.5q0 -42 -26 -86.5t-64.5 -76.5t-105.5 -65l-29 -15l-13 -5l-13 -4q43 -22 72.5 -46.5t75.5 -78.5l23 -26q81 -90 128 -125.5t110 -54.5zM393 524q4 19 4 38q0 47 -25.5 76t-68.5 34q-9 1 -25 1
q-59 0 -97 -27q-34 -24 -34 -57v-245l13 3l14 3l31 9q83 27 129.5 69.5t58.5 95.5z" />
    <glyph glyph-name="S" unicode="S" horiz-adv-x="547" 
d="M494 84q-32 -46 -90.5 -72t-137.5 -26q-81 0 -175 29q-14 4 -23 7q-21 7 -40 16l14 26q11 28 16 46.5t5 42.5l8 -11l4 -7q1 -2 9.5 -15.5t12.5 -21.5q2 -4 9 -10q12 -11 25 -23q34 -29 70 -43.5t76 -14.5q46 0 105 21l25 11q32 17 50 47t18 64q0 28 -11.5 52.5t-37 46
t-70.5 37.5q-54 20 -171 47q-20 4 -33.5 8.5t-33.5 14.5q-90 42 -90 137q0 68 53 128q37 42 95 66.5t128 24.5q53 0 110 -15q26 -8 37 -11.5t32 -13.5l-6 -14l-1 -4l-19 -42q-7 -13 -7 -38q0 -17 2 -28l-6 15q-29 65 -71.5 93.5t-111.5 28.5q-81 0 -128 -45t-47 -113
q6 -58 48 -87t174 -66l62 -16q36 -9 65 -24q43 -21 66.5 -61t23.5 -86q0 -30 -7.5 -53t-25.5 -48z" />
    <glyph glyph-name="T" unicode="T" horiz-adv-x="793" 
d="M800 700l-8 -5q-48 -35 -58 -91l-2 -13q-5 8 -10 13l-11 11q-31 28 -60 39t-73 11h-105q-52 0 -109 -45q-65 -51 -113 -146q-16 -29 -27 -65q-23 -66 -23 -131q0 -111 68 -182t172 -71h37q16 3 23 4q77 10 135.5 44.5t95.5 89.5v-37v-38q-60 -50 -139.5 -72.5
t-184.5 -22.5q-12 0 -26.5 1.5t-31.5 5.5q-111 21 -175 92t-64 173q0 44 11 86.5t37 90.5q31 58 79 110t120 102l9 7l6 4h-226q-48 0 -75 -7t-64 -28l-21 -12l-8 -6l16 26q24 38 34.5 61.5t17.5 56.5l5 -5l6 -5q27 -23 63 -34.5t86 -11.5h593z" />
    <glyph glyph-name="U" unicode="U" 
d="M651 0h-76v81l-24 -15l-11 -8l-37 -24l-10 -7q-22 -15 -68.5 -27.5t-94.5 -12.5q-122 0 -203 76t-97 212q-2 10 -2 21.5v17.5q0 106 74 218q22 34 32 45q22 27 22 38q0 15 -42 54q-11 9 -20 13q-5 4 -7 12l6 6h147q11 0 6 -12q-1 -4 -10 -16q-16 -22 -17 -23
q-38 -41 -69 -126q-22 -54 -28 -118q-3 -21 -4 -52.5t-1 -33.5q0 -144 65 -222q62 -75 171 -75q28 0 57 5t58 18q56 24 81.5 50.5t25.5 55.5v430q0 32 -11 51.5t-44 49.5l-20 18h151v-700z" />
    <glyph glyph-name="V" unicode="V" horiz-adv-x="708" 
d="M729 700l-12 -18l-5 -10l-45 -84l-13 -24l-63 -116q-45 -83 -102 -199q-20 -40 -43 -88q-44 -93 -81 -172l-14 -29l-18 38l-11 25l-89 216l-26 61q-51 115 -96 199q-39 72 -74 123l-11 15l-25 34l-22 29h186q-3 -11 -5 -21.5t-2 -23.5q0 -39 18 -94t67 -162
q11 -25 29.5 -62.5t53.5 -102.5l33 -62l11 -22l8 -14l12 -19l11 19l12 22l29 55l27 49l32 60l37 70l14 29l49 96q36 72 36 109q0 40 -45 69l-11 5h148z" />
    <glyph glyph-name="W" unicode="W" horiz-adv-x="1057" 
d="M987 0h-77v81q-18 -25 -45.5 -44.5t-65.5 -32.5q-48 -17 -89 -17q-83 0 -153 64l-10 8q-49 -39 -114 -58q-54 -15 -104 -15q-96 0 -167.5 53t-107.5 152q-13 36 -19.5 69.5t-6.5 69.5q0 46 11 84t23.5 62.5t39.5 61.5l32 41q22 25 22 36q0 15 -42 53l-20 14q-2 4 -3 5
t-1 3q-1 10 15 10h120l15 -1q11 -6 5 -14l-26 -30q-36 -34 -70 -120q-22 -54 -26.5 -94.5t-5.5 -60.5t-1 -44q0 -149 69 -229.5t186 -80.5h24q11 2 15 2q66 7 121 49l-5 6l-4 5q-42 54 -61 127t-19 164q6 72 28 128q9 25 19 46t13 26l13 25l2 2q7 9 0.5 20t-17.5 18l-24 17
q-23 22 -23 31q-1 3 2 6q1 0 2 1l13 1h83h9q21 0 21 -11q0 -8 -8 -29q-15 -33 -32 -122q-3 -23 -6.5 -52t-3.5 -47q0 -213 49.5 -312.5t149.5 -99.5h26q13 3 21.5 5t18.5 5t25 10q44 21 65.5 48t21.5 56v430q0 37 -13 57t-52 45q-1 2 -2 3q-6 9 -8 13l12 1h140v-700z" />
    <glyph glyph-name="X" unicode="X" horiz-adv-x="697" 
d="M718 0h-118l-17 24l-10 18l-65 101l-20 32q-71 109 -117 175q-37 52 -74 99l-8 -11l-5 -7q-12 -18 -25 -42.5t-32 -65.5q-24 -48 -48 -111t-44 -134q-2 -5 -7.5 -26t-12.5 -52h-115l27 50l25 47l70 125l129 216l22 38l-15 20l-18 21l-17 21l-19 20q-17 20 -30 32.5
t-25 21.5q-27 21 -48.5 30.5t-44.5 9.5q-15 0 -43 -5l-12 -3q42 42 99 42q47 0 95.5 -30t97.5 -94l9 -13l8 -10l21 28q60 82 105 113.5t96 31.5q43 0 80 -17l-21 -19q-33 -41 -41 -94q-16 58 -70 58q-16 0 -27 -5q-25 -10 -49 -28q-27 -23 -45.5 -47.5t-26.5 -46.5l23 -30
l17 -23l96 -128l114 -151l31 -41l65 -87l7 -10z" />
    <glyph glyph-name="Y" unicode="Y" 
d="M651 115q0 -162 -85 -249t-250 -87q-25 0 -58 3t-66 8q-57 11 -107 34q29 11 49 22t46 32l9 6l7 6q21 -37 62 -58.5t98 -21.5h16q12 2 18 2q78 8 117 59t62 177l4 28q-36 -37 -84 -58.5t-112 -28.5q-8 0 -19.5 -1t-24.5 -1q-125 0 -206 75.5t-97 212.5q-2 10 -2 21.5
v17.5q0 106 74 218q22 34 32 45q22 27 22 38q0 15 -42 53q-9 10 -20 14l-2 3q0 9 3 13q1 1 3 2h133q7 -2 9 -4q7 -5 7 -9t-28 -38q-37 -38 -70 -127q-21 -54 -27 -117q-3 -20 -4 -40t-1 -45q0 -145 66 -224q63 -76 172 -76q14 0 28.5 1t30.5 4.5t24.5 6t29.5 10.5
q56 25 81.5 52.5t25.5 56.5v430q0 35 -14 56t-53 46l-8 13l11 4h140v-585z" />
    <glyph glyph-name="Z" unicode="Z" horiz-adv-x="770" 
d="M749 104l-7 -15q-33 -65 -57.5 -96t-60.5 -52q-36 10 -61 25.5t-64 54.5l-45 45l-5 5q-16 18 -61 38q-34 13 -70 13q-90 0 -206 -74q-25 -18 -37 -27q-18 -14 -34 -28l-8 -7l-8 -7l-18 21l622 622h-364q-50 0 -90.5 -7.5t-110.5 -30.5l-3 -1l-17 -2l17 18q39 43 59 72.5
t35 63.5l26 -18q41 -26 94.5 -33t206.5 -7l49 1l114 6q28 4 48 4q27 0 32 -12q2 -6 -2 -10l-516 -515l12 5l22 8q81 32 139 32q75 0 152 -50l8 -5l32 -23l17 -12q38 -22 74 -22q25 0 61 11l20 7z" />
    <glyph glyph-name="bracketleft" unicode="[" horiz-adv-x="222" 
d="M209 -50l-140 78v608l140 81v-34l-85 -48v-600l85 -51v-34z" />
    <glyph glyph-name="backslash" unicode="\" horiz-adv-x="531" 
d="M525 -70h-28h-28q-7 20 -12.5 33.5t-22.5 44.5l-13 24l-427 740h97l-7 -37q0 -26 5.5 -45.5t27.5 -64.5l6 -13l336 -580l8 -14l6 -11l13 -20l16 -23l12 -18z" />
    <glyph glyph-name="bracketright" unicode="]" horiz-adv-x="222" 
d="M153 28l-139 -78v36l84 48v603l-84 44v36l139 -81v-608z" />
    <glyph glyph-name="asciicircum" unicode="^" horiz-adv-x="334" 
d="M280 504l-14 -18l-102 40q-18 -9 -63 -26q-15 -5 -43 -16l-8 18q42 17 63.5 33.5t50.5 52.5q22 -30 49 -49.5t67 -34.5z" />
    <glyph glyph-name="underscore" unicode="_" horiz-adv-x="560" 
d="M560 0h-560v35h560v-35z" />
    <glyph glyph-name="grave" unicode="`" horiz-adv-x="0" 
d="M331 503l-8 -17l-208 36q27 8 44 23t32 42q18 -27 50.5 -47.5t89.5 -36.5z" />
    <glyph glyph-name="a" unicode="a" horiz-adv-x="447" 
d="M461 0h-70l-56 112l-11 -13q-47 -51 -86 -75t-82 -29q-5 -1 -16 -1q-50 0 -84.5 34.5t-34.5 82.5q0 52 39 94t117 68q13 5 32.5 10t37.5 7l-28 55q-21 39 -63 39q-16 0 -30 -7q13 12 22 18.5t27 16.5l11 6q17 8 21 44l9 -8l6 -7q23 -25 50 -71l12 -21zM329 126l-75 149
q-32 0 -56 -9q-116 -46 -116 -128q0 -42 24.5 -69.5t65.5 -27.5q9 1 13 1q27 3 50.5 13t51.5 31q13 10 20 16.5t22 23.5z" />
    <glyph glyph-name="b" unicode="b" horiz-adv-x="450" 
d="M426 197q-2 -14 -6 -29t-10 -30q-11 -32 -32 -60q-62 -87 -154 -87q-46 0 -96 24.5t-78 72.5t-28 106q0 51 21 100t66 94.5t45 78.5q0 32 -46 66q-11 7 -21 12t-25 7q31 10 46 13t45 3l30 1q6 0 11 2q4 1 25 13q10 6 20 -4q7 -5 7 -15q0 -12 -11.5 -40.5t-37.5 -79.5
q-5 -9 -13 -22.5t-37 -59.5t-40.5 -83.5t-11.5 -80.5q0 -23 4 -42q11 -54 31 -87q17 -28 43.5 -43.5t54.5 -15.5q27 0 51 12.5t44 39.5q10 15 18.5 34.5t15 45t6.5 59.5q0 22 -1 33t-7 33q-12 54 -39.5 81.5t-67.5 27.5q-32 0 -65 -18l-26 -13q31 60 106 60q18 0 43 -5
q56 -12 89.5 -57.5t33.5 -111.5q0 -17 -3 -35z" />
    <glyph glyph-name="c" unicode="c" horiz-adv-x="409" 
d="M396 96l-2 -9q-8 -33 -34 -54t-82 -37q-27 -7 -56 -7q-100 0 -158 86q-43 68 -43 135q0 56 31.5 102.5t88.5 71.5q27 12 49 15.5t40 3.5q55 0 96 -27q26 -16 41 -40q-24 -23 -55 -33l-20 -5q3 9 3 19q0 23 -15.5 40.5t-40.5 17.5q-9 1 -13 1q-54 0 -95.5 -47.5
t-41.5 -113.5q0 -22 6 -45q21 -81 73 -120l23 -14q37 -20 71 -20q48 0 97 40l29 30z" />
    <glyph glyph-name="d" unicode="d" horiz-adv-x="476" 
d="M447 626q-8 -18 -14.5 -42.5t-9.5 -55.5l-2 -27v-434q0 -25 1 -32t7 -22l6 -13h-76v39l-32 -22q-53 -30 -106 -30q-69 0 -123 46t-70 124q-3 11 -4 23t-1 26q0 87 57.5 143.5t145.5 56.5h15q10 -2 15 -2q57 -6 103 -36v92q0 22 -18 43.5t-50 34.5l-10 3q41 6 81 27l3 2
l48 35zM359 111v186q0 29 -51 61l-25 12q-30 12 -58 12q-57 0 -93 -47q-39 -51 -39 -139q0 -16 1 -26t4 -29q12 -63 45.5 -97t77.5 -34q28 0 60 16l24 16q29 21 41.5 37.5t12.5 31.5z" />
    <glyph glyph-name="e" unicode="e" horiz-adv-x="402" 
d="M388 81l-11 -14q-33 -41 -70.5 -58t-87.5 -17q-73 0 -135 63q-31 31 -47 70t-16 81q0 6 1 14t1 12q10 71 51 115q45 48 104 56q20 3 39 3q66 0 107.5 -33t41.5 -79h-268l-3 -16q-6 -45 -6 -74q0 -28 4 -48q13 -57 57 -91.5t102 -34.5q43 0 80 20l7 3l27 17q4 4 22 11z
M297 313q-4 32 -32 54t-62 22q-17 0 -35 -6.5t-33 -21.5t-26 -39l-4 -9h192z" />
    <glyph glyph-name="f" unicode="f" horiz-adv-x="319" 
d="M323 350l-16 -2q-59 0 -78 -51l2 21l3 30q0 18 -11 29t-28 11q-23 0 -41.5 -20t-30.5 -62q-7 -25 -7 -46v-264q4 -1 7 -1h4q9 0 47 15q9 3 21 3q21 0 70 -7l27 -5l5 -1l7 -3q-5 -6 -13 -11.5t-21 -12t-35 -6.5q-15 0 -32 4.5t-36 8t-25 3.5q-9 0 -26 -5v-194l-62 -49v523
q0 24 -11 44.5t-38 45.5l-17 17l54 -6q15 -3 20 -3q7 -1 15 -1q16 0 39 15q73 45 106 45q22 0 51.5 -16t49.5 -49z" />
    <glyph glyph-name="g" unicode="g" horiz-adv-x="485" 
d="M437 198l-6 -137v-7q0 -16 -2 -30.5t-8 -40.5q-23 -113 -86 -177q-59 -60 -135 -60q-38 0 -72.5 15.5t-55 33t-32.5 39.5q23 13 37 29t33 53q3 6 12.5 14t18.5 14l-6 -23q-11 -47 -11 -66q0 -16 4.5 -26.5t15 -23.5t25.5 -22t25.5 -11.5t24.5 -2.5q55 0 95 54
q45 61 55 177q1 9 1 18.5v15.5v13q0 6 -2 22l-11 -13q-29 -27 -64 -45t-69 -24q-20 -3 -36 -3q-71 0 -112 45t-41 121q0 131 163 207q6 3 13 6q5 2 14 4h-197q5 30 25.5 49.5t49.5 19.5q32 -44 92 -44h241l-13 -25h-102q-74 0 -132 -44q-43 -33 -66 -77.5t-23 -91.5v-12
q2 -8 2 -12q7 -55 40.5 -87t77.5 -32q17 0 34 6q63 22 104.5 92.5t54.5 195.5l2 25q17 -17 19.5 -34t2.5 -98z" />
    <glyph glyph-name="h" unicode="h" horiz-adv-x="449" 
d="M412 39l-5 -39h-70q21 48 26 99q0 142 -34.5 206t-103.5 64q-40 0 -69 -20t-40 -56v-246q0 -11 4 -24l9 -23h-91q16 20 16 47v398q0 19 -12 34t-46 36l-19 13q23 4 45 11t33 14l49 32l38 21q-16 -29 -24 -96l-2 -25v-134l8 5l8 6q48 29 94 35q9 2 19.5 2h15.5
q80 0 120 -54.5t40 -176.5q0 -55 -9 -129z" />
    <glyph glyph-name="i" unicode="i" horiz-adv-x="171" 
d="M112 514q-16 -14 -35 -14q-18 0 -34 14q-15 17 -15 35q0 21 15 35.5t35 14.5t34 -14.5t14 -35.5t-14 -35zM131 0h-90l9 22q4 12 4 25v262q0 27 -6 38.5t-26 25.5l-33 19h128v-345l3 -24q1 -4 3 -8q3 -8 8 -15z" />
    <glyph glyph-name="j" unicode="j" horiz-adv-x="171" 
d="M110 514q-14 -14 -34 -14q-19 0 -35 14q-15 17 -15 35q0 21 15 35.5t35 14.5t34 -14.5t14 -35.5t-14 -35zM117 0v-12q0 -6 -2 -20q-7 -64 -38 -118q-23 -37 -42 -56t-47 -33l5 8l5 7q26 42 42 105q8 28 11 55t3 64v309q0 27 -6 39t-26 25l-34 19h129v-392z" />
    <glyph glyph-name="k" unicode="k" horiz-adv-x="441" 
d="M410 63q1 -6 1 -12v-12q0 -21 -3 -39h-16h-17h-15l-16 1q2 10 3 23t1 25q0 14 -1 21q-10 89 -57.5 135.5t-122.5 46.5q-16 0 -24 -1l-15 -2l-10 -2v-200q0 -18 7 -36l5 -11h-45h-46l7 11q8 13 8 36v398q0 21 -12 36.5t-45 33.5l-18 12q37 7 57.5 16t69.5 42q4 3 12 7
q16 8 25 13q-9 -18 -14.5 -39.5t-9.5 -55.5l-1 -25v-206l19 1q46 4 72 12q53 13 77.5 30.5t24.5 39.5q0 14 -11 30h95q0 -29 -26 -53.5t-92 -54.5q-10 -4 -23 -8.5t-23 -6.5q19 0 33 -4t34 -13q49 -23 80.5 -71.5t31.5 -117.5z" />
    <glyph glyph-name="l" unicode="l" horiz-adv-x="253" 
d="M272 6q-11 -10 -25 -15t-38 -5h-12q-9 2 -14 2q-66 7 -110 70q-47 67 -47 173q0 32 8 68.5t27 89.5l12 26l21 49q2 10 2 15q0 27 -27 55l-17 15l-1 5q2 11 23 14t48 6l60 20l5 1l20 5q-41 -61 -70 -132q-25 -63 -36.5 -120.5t-11.5 -109.5q0 -38 6 -68
q20 -93 56.5 -128.5t110.5 -35.5h10z" />
    <glyph glyph-name="m" unicode="m" horiz-adv-x="693" 
d="M649 46l-10 -46h-64q24 62 24 146v33q-3 24 -5 40.5t-4.5 27.5t-10.5 40q-13 38 -43.5 60.5t-68.5 22.5q-37 0 -74 -22q-8 -4 -22 -16l4 -5l2 -5q12 -21 20 -67q3 -14 4 -33t1 -47q0 -49 -6 -114l-9 -61h-64q9 26 14.5 49.5t5.5 47.5q0 146 -32.5 209t-96.5 63
q-17 0 -34 -6q-31 -11 -48 -31t-17 -39v-246q0 -11 4 -24l9 -23h-91q16 21 16 47v237q0 30 -12 50.5t-45 45.5l-11 10l29 1q20 0 37.5 2.5t41.5 8.5l11 1l11 3v-55l19 10q78 36 134 36q30 0 52 -10.5t34 -29.5l21 10q62 31 100 31q91 0 136 -49q50 -54 50 -170
q0 -56 -12 -133z" />
    <glyph glyph-name="n" unicode="n" horiz-adv-x="452" 
d="M419 245q5 -32 5 -71q0 -36 -2 -62.5t-10 -66.5l-10 -45h-64q22 48 26 98q0 142 -35 206.5t-103 64.5q-18 0 -36 -5q-36 -13 -54.5 -32.5t-18.5 -38.5v-246q0 -11 4 -24q1 -7 9 -23h-91q15 19 15 47v237q0 32 -17.5 59.5t-48.5 42.5l-9 4l33 1q24 0 44 2.5t42 8.5l9 1
l10 3v-55l7 4l11 7l27 14q54 25 102 25q61 0 102 -41t53 -115z" />
    <glyph glyph-name="o" unicode="o" horiz-adv-x="458" 
d="M437 196q0 -75 -39 -128t-107 -72q-35 -9 -67 -9q-86 0 -144.5 59.5t-58.5 149.5q0 74 38.5 126.5t107.5 73.5q34 8 62 8q30 0 62 -8q69 -21 107.5 -73.5t38.5 -126.5zM365 196q0 89 -39.5 139t-96.5 50q-58 0 -95 -48q-41 -53 -41 -145q0 -24 5 -52q15 -66 48.5 -99.5
t82.5 -33.5q58 0 95 47q41 52 41 142z" />
    <glyph glyph-name="p" unicode="p" horiz-adv-x="484" 
d="M415 81q-29 -42 -72 -64.5t-97 -22.5q-70 0 -117 35l-7 6l-7 6v-133q0 -53 38 -83q-37 -16 -50 -27l-36 -28q-14 -5 -14 8v494q0 53 -24 88q-14 19 -33 32q12 6 28 6q26 0 61 -22l22 -18l9 7l9 4q52 34 120 34q21 0 41 -2t37 -8q60 -18 96.5 -69.5t36.5 -114.5
q0 -68 -41 -128zM378 198q0 86 -37 133.5t-94 47.5q-27 0 -56 -12l-26 -12q-26 -16 -38 -31t-12 -28v-180q0 -13 11.5 -29t38.5 -36l26 -17q28 -16 59 -16q43 0 77 33.5t46 93.5q5 28 5 53z" />
    <glyph glyph-name="q" unicode="q" horiz-adv-x="484" 
d="M456 392q-27 -32 -27 -76v-420q0 -16 9 -42l4 -7l2 -4q-48 -23 -78 -65v263l-6 -6l-8 -6q-23 -17 -51.5 -26t-66.5 -9q-39 0 -77 12q-61 19 -97.5 71.5t-36.5 117.5t38 122q30 44 74 64.5t111 20.5q25 0 55 -3l50 -5l19 -3q18 -2 33 -2q20 0 53 3zM366 116v180
q0 15 -11 28.5t-40 30.5q-7 5 -12 7q-6 3 -13 5q-29 12 -57 12q-58 0 -95 -47.5t-37 -133.5q0 -12 1 -26.5t4 -26.5q11 -61 44.5 -93.5t77.5 -32.5q31 0 61 15l23 14q31 22 42.5 37t11.5 31z" />
    <glyph glyph-name="r" unicode="r" horiz-adv-x="402" 
d="M420 18l-13 -7q-27 -12 -46 -12q-32 0 -78 43l-7 6l-45 45l-9 9q-44 39 -57 48.5t-26 12.5l-23 1v-112q0 -23 4 -38l4 -14h-82q11 21 11 52v263q0 43 -37 70l-11 7q12 4 29 4q25 0 51 -13l21 -16q53 43 119 43q30 0 65 -11q66 -22 66 -81q0 -27 -20 -53.5t-49.5 -43
t-84.5 -30.5l-21 -5l-9 -2l-10 -2q38 -5 67.5 -20.5t63.5 -48.5l2 -2l38 -41q26 -28 44 -39t43 -13zM280 274q7 15 7 33q0 49 -48 68q-18 8 -38 8q-19 0 -42 -9t-33 -17.5t-10 -18.5v-147l20 1q57 6 93.5 29t50.5 53z" />
    <glyph glyph-name="s" unicode="s" horiz-adv-x="382" 
d="M340 309q-19 -5 -30 -13t-36 -37l-18 -16q10 14 14 27.5t4 28.5q0 33 -21.5 54.5t-56.5 21.5q-42 0 -64 -22q-23 -26 -23 -59q0 -23 11 -41t33 -26.5t36.5 -12.5t47.5 -12l30 -8q35 -5 61 -28t26 -61q0 -44 -34.5 -73t-80.5 -38q-30 -6 -56 -6q-70 0 -113.5 35.5
t-48.5 92.5l10 4l4 2l25 9l9 3q18 6 46 30l-5 -8q-7 -14 -10 -27.5t-3 -27.5q0 -34 21.5 -57.5t59.5 -28.5q14 -2 20 -2q30 0 53 14t34 36q7 17 7 35q0 22 -11.5 40.5t-31 26.5t-44 14.5t-68.5 12.5q-10 2 -17 4q-2 1 -16 7q-24 11 -38 34.5t-14 49.5q0 41 29 70
q20 20 47 32t60 12q132 0 152 -92z" />
    <glyph glyph-name="t" unicode="t" horiz-adv-x="411" 
d="M425 392l-13 -25h-120q-36 0 -73.5 -24t-68.5 -72q-33 -45 -33 -106q0 -63 38.5 -102.5t97.5 -39.5q27 0 60 11l42 18l13 7l6 4q-21 -36 -58 -53.5t-96 -17.5q-64 0 -108.5 32t-59.5 87q-6 21 -6 42q0 47 30 94t92 92l24 16l9 6l12 6h-220l10 18q11 24 19.5 34.5
t16.5 10.5q7 0 13 -6q25 -20 44 -26t59 -6h270z" />
    <glyph glyph-name="u" unicode="u" horiz-adv-x="471" 
d="M432 0h-76v48l-7 -6l-7 -6q-60 -44 -133 -44h-12q-7 0 -21 2q-70 10 -109 55.5t-39 119.5q0 58 34 110l16 24q1 3 1 10q0 10 -5.5 23t-18.5 31l-17 25h105l4 -3q2 -5 3 -7q3 -5 3 -7q0 -5 -7 -19q-16 -28 -29.5 -53t-19 -58t-5.5 -63q0 -72 33.5 -110.5t98.5 -43.5
q6 -1 12 -1h12q51 0 79.5 19t28.5 43v232q0 21 -15 43q-6 8 -13.5 15t-17.5 13h122q-13 -20 -13 -47v-298q0 -17 9 -38z" />
    <glyph glyph-name="v" unicode="v" horiz-adv-x="395" 
d="M402 392l-7 -12l-3 -5l-6 -11l-59 -119l-26 -52l-32 -61q-37 -75 -77 -148q-11 23 -16 34t-19 46l-28 74q-10 26 -13 34q-7 16 -26 56q-23 51 -47 90.5t-50 73.5h133q-14 -25 -14 -50q0 -27 14.5 -76.5t48.5 -121.5l12 -23l7 -15l11 -20l5 -10l3 -4l6 14l4 9l26 57l13 31
l19 41l9 18l20 50q18 41 18 58q0 16 -17 36l-5 6h96z" />
    <glyph glyph-name="w" unicode="w" horiz-adv-x="682" 
d="M647 0h-76v48l-11 -5l-6 -3l-48 -30q-13 -9 -30.5 -13.5t-45.5 -4.5q-71 0 -112 60l-5 8q-8 -7 -11 -10q-17 -16 -21 -19q-53 -41 -110 -41q-42 0 -76 23t-50 63q-9 21 -13 44t-4 49q0 57 34 110q18 26 18 39q0 14 -25 49l-17 25h110q2 -2 2 -4q2 -7 2 -19l-36 -68
q-23 -42 -23 -134q0 -20 3 -34t13 -39q25 -61 94 -61q32 0 67 18q17 7 32 24l-4 12q-8 35 -8 66q0 47 17 98l8 22l12 29q3 25 -24 65l-17 25h112q2 -2 2 -3q3 -7 3 -17l-29 -69q-4 -8 -8 -23.5t-6 -28.5q-5 -38 -5 -47.5v-16.5q0 -28 4.5 -50.5t14.5 -43.5q14 -29 41 -46.5
t57 -17.5q42 0 75 30q7 6 13 14t11 16v232q0 32 -29 59l-17 12h122q-13 -20 -13 -47v-298q0 -13 5 -28z" />
    <glyph glyph-name="x" unicode="x" horiz-adv-x="471" 
d="M477 59q-22 -62 -86 -62q-32 0 -60 19.5t-47 39t-45 58.5l-19 30l-9 14l-9 16q-9 -28 -10 -31q-9 -28 -20 -53q-36 -84 -74.5 -146.5t-73.5 -95.5q-44 -42 -76 -58.5t-67 -16.5q60 37 113 108q60 81 138 236q15 29 24 49q15 34 22 50l-8 13l-7 12l-10 19q-35 56 -58 76.5
t-51 20.5q-13 0 -28 -3l-9 -2l-5 -2l94 47q66 -27 103 -82l20 -35l5 9l6 9q33 52 75 78.5t84 26.5q38 0 72 -20q-22 -42 -62 -62q-23 30 -52 30q-42 0 -81 -58l-29 -42l36 -62l33 -67l5 -10l26 -48q15 -25 33 -35q10 -5 18 -5q25 0 34 25q4 9 4 23q0 7 -1.5 17t-7.5 21
l38 -30l12 -11z" />
    <glyph glyph-name="y" unicode="y" horiz-adv-x="467" 
d="M432 392q-13 -22 -13 -50v-314q0 -90 -42 -160t-114 -103q-60 -28 -107 -28q-65 0 -100 55l16 21l15 22l16 20l17 22q-4 -12 -4 -26q0 -29 21 -55q26 -30 65 -30q26 0 52.5 15t49.5 44.5t37.5 77t14.5 105.5v20l-14 -13q-14 -13 -38 -24t-52 -18q-10 -2 -23 -3t-25 -1
q-19 0 -28 2q-70 10 -109 57.5t-39 127.5q0 61 34 116l16 25q1 3 1 11q0 11 -5 24t-19 33l-17 27h106l4 -2q2 -5 5 -10q1 -2 1 -5t-8 -19q-17 -34 -30 -59t-18.5 -60t-5.5 -67q0 -77 33 -117t98 -46q9 -1 25 -1q50 0 79 20.5t29 46.5v245q0 19 -11 38q-7 13 -17 22.5
t-18 13.5h122z" />
    <glyph glyph-name="z" unicode="z" horiz-adv-x="448" 
d="M435 80l-5 -12q-36 -63 -72 -88q-30 12 -52.5 29.5t-53.5 51.5q-18 20 -58 20q-27 0 -56.5 -9.5t-64.5 -31.5q-27 -18 -49 -40h-17l333 353h-187q-30 0 -50.5 -4t-60.5 -17l-12 -1l25 29l22 25l2 2q7 9 11 16q1 2 10 21q21 -19 58 -26t113 -7l37 2l65 6q21 4 31 4
q5 0 9 -2q7 -7 0 -15l-285 -289l9 5l12 5l22 9q40 14 67 14q44 0 107 -48q17 -13 35 -13q17 0 41 7z" />
    <glyph glyph-name="braceleft" unicode="{" horiz-adv-x="194" 
d="M156 -58q-53 1 -73 20q-34 31 -34 102v126.5v25.5q0 67 -10 94q-6 18 -24 20v4q6 -2 10 0q24 13 24 105v125q0 126 73 151q12 4 34 4v-4q-25 -4 -35 -28q-17 -41 -17 -126v-125q0 -58 -14 -84q-8 -16 -31 -18v-4q22 -2 30 -20q15 -31 15 -96v-150q0 -67 16 -96
q10 -18 36 -21v-5z" />
    <glyph glyph-name="bar" unicode="|" horiz-adv-x="172" 
d="M116 -55h-61q12 102 15.5 182.5t3.5 189.5v21v18v17v14v13v11q0 18 -0.5 36.5t-0.5 38.5v11q0 62 -5 119l-13 117h61q-8 -92 -11.5 -183t-3.5 -182v-94t1 -99q0 -45 7 -115t7 -115z" />
    <glyph glyph-name="braceright" unicode="}" horiz-adv-x="194" 
d="M159 330q-16 -2 -22 -19q-11 -31 -11 -95v-44.5v-107.5q0 -74 -39 -104q-24 -19 -59 -19h-10q-1 1 -1 6q10 -1 16 1q37 16 37 116v150q0 66 14 95q8 18 31 21v4q-22 1 -30 16q-15 27 -15 86v125q0 87 -16 125q-10 24 -37 29v4q36 -1 54 -12q55 -34 55 -143v-125
q0 -61 10 -87q6 -16 23 -18v-4z" />
    <glyph glyph-name="asciitilde" unicode="~" horiz-adv-x="322" 
d="M284 532l-3 -6q-10 -18 -19 -26q-5 -5 -20 -14q-14 5 -25 11q-23 11 -46 23q-12 6 -32 6q-14 0 -29 -4.5t-33 -15.5q-5 -3 -13.5 -10.5t-13.5 -12.5l-11 16l55 34l7 1l13 6q10 4 23 6t25 2q34 0 68 -16q13 -5 23 -5t23 4z" />
    <glyph glyph-name="Adieresis" unicode="&#xc4;" horiz-adv-x="669" 
d="M689 0h-123q-15 44 -30 80t-47 106l-31 67l-21 43q-11 26 -21 44.5t-20 39.5l-8 16l-10 18l-20 -26l-15 -19l-83 -105l-102 -126l-83 -105l-35 -45q-13 51 -13 107q0 88 36.5 175.5t106.5 162.5q63 65 144 109l-5 12q-30 69 -62 101.5t-81 46.5l32 -1l13 -1l74 -2h12
q26 2 33 2q15 0 29 -27q29 -65 62 -138l75 -175l13 -31l60 -135q32 -75 58 -116q23 -36 62 -78zM370 430l-44 89q-34 -5 -63 -28.5t-80 -88.5q-22 -29 -38.5 -64.5t-24 -68.5t-9 -41.5t-1.5 -24.5q0 -17 -0.5 -30.5t-0.5 -24.5q0 -24 9 -33zM357 762q-12 -13 -29 -13t-29 12
t-12 29t12.5 28.5t28.5 11.5t28 -11t12 -29t-11 -28zM219 762q-12 -13 -29 -13t-29 12t-12 29t12.5 28.5t28.5 11.5t28 -11t12 -29t-11 -28z" />
    <glyph glyph-name="Aring" unicode="&#xc5;" horiz-adv-x="669" 
d="M321 756q-21 -19 -44 -19t-40.5 17.5t-17.5 41.5t17.5 41t41.5 17q13 0 23 -3.5t20 -12.5q17 -19 17 -41q0 -24 -17 -41zM308 768q11 10 11 28t-12 29t-28 11t-28.5 -11.5t-12.5 -28.5t12 -29t29 -12t29 13zM689 0h-123q-15 44 -30 80t-47 106l-31 67l-21 43
q-11 26 -21 44.5t-20 39.5l-8 16l-10 18l-20 -26l-15 -19l-83 -105l-102 -126l-83 -105l-35 -45q-13 51 -13 107q0 88 36.5 175.5t106.5 162.5q63 65 144 109l-5 12q-30 69 -62 101.5t-81 46.5l32 -1l13 -1l74 -2h12q26 2 33 2q15 0 29 -27q29 -65 62 -138l75 -175l13 -31
l60 -135q32 -75 58 -116q23 -36 62 -78zM370 430l-44 89q-34 -5 -63 -28.5t-80 -88.5q-22 -29 -38.5 -64.5t-24 -68.5t-9 -41.5t-1.5 -24.5q0 -17 -0.5 -30.5t-0.5 -24.5q0 -24 9 -33z" />
    <glyph glyph-name="Ccedilla" unicode="&#xc7;" horiz-adv-x="747" 
d="M733 700l-5 -4l-7 -7q-19 -18 -27.5 -37t-8.5 -50v-11q-37 39 -86 59t-119 20q-156 0 -252 -78t-111 -221q-2 -11 -2 -24v-20q0 -134 86 -222t212 -88h16q12 2 18 2q118 12 201 100q7 7 19.5 22.5t17.5 22.5l-1 -17l-1 -19v-18v-19q-53 -48 -118 -73.5t-145 -25.5h-9
l-14 -22q30 -42 30 -79q0 -53 -52 -77q-29 -13 -50 -13t-35.5 11t-26.5 31l38 51q-3 -8 -3 -17q0 -18 13 -31q22 -25 44 -25t45 29q3 5 3 11q0 14 -14 40q-9 16 -27 44l34 47q-126 0 -211.5 52.5t-130.5 154.5q-15 36 -20.5 73.5t-5.5 88.5q0 151 107.5 244.5t286.5 93.5
l37 1h274z" />
    <glyph glyph-name="Eacute" unicode="&#xc9;" horiz-adv-x="761" 
d="M733 700l-6 -5l-5 -5q-18 -17 -28.5 -39t-10.5 -48v-12q-38 39 -85.5 59t-116.5 20q-21 0 -40 -0.5t-43 -4.5q-103 -17 -160.5 -61t-82.5 -106h381l25 2q76 10 122 47v-30v-56v-30l-21 14q-31 19 -58.5 26.5t-67.5 7.5h-389l-5 -12l-4 -11l-8 -26q-7 -29 -10.5 -55
t-3.5 -56q0 -91 42 -159.5t107 -105.5t143 -37q14 0 30 1.5t36 5.5q75 16 126.5 51.5t82.5 91.5v-37v-36q-73 -70 -184 -93q-60 -11 -108 -11q-151 0 -249.5 86t-112.5 225q-1 8 -1.5 15.5t-0.5 17.5q0 40 9 78q27 129 116 205q95 81 241 81l37 2h46h257zM506 786l-208 -36
l-8 17q55 15 89 36t51 48q14 -24 32 -40.5t44 -24.5z" />
    <glyph glyph-name="Ntilde" unicode="&#xd1;" horiz-adv-x="696" 
d="M626 -25q-13 9 -16 12q-6 5 -14 14l-18 22l-484 589v-444q0 -34 16.5 -75t44.5 -74l19 -19h-35h-63h-41q10 14 15 28t11 41l8 38v535l-20 18q-25 22 -38.5 29.5t-34.5 10.5h146l478 -581v443q0 37 -16 65t-54 57l-17 12l-6 4h119v-725zM440 796l-3 -6q-10 -18 -19 -26
q-5 -5 -20 -14q-14 5 -25 11q-23 11 -46 23q-12 6 -32 6q-14 0 -29 -4.5t-33 -15.5q-5 -3 -13.5 -10.5t-13.5 -12.5l-11 16l55 34l7 1l13 6q10 4 23 6t25 2q34 0 68 -16q13 -5 23 -5t23 4z" />
    <glyph glyph-name="Odieresis" unicode="&#xd6;" horiz-adv-x="828" 
d="M779 218q-37 -105 -135 -170t-230 -65q-172 0 -279 103t-107 264q0 160 106.5 263.5t279.5 103.5q171 0 279.5 -103.5t108.5 -257.5q0 -36 -5 -68t-18 -70zM707 350q0 125 -55.5 210.5t-150.5 117.5q-40 13 -87 13q-46 0 -86 -13q-95 -31 -149 -115q-57 -88 -57 -213
t55.5 -211t150.5 -117q44 -14 86 -14q43 0 87 14q95 31 150.5 117t55.5 211zM507 762q-12 -13 -29 -13t-29 12t-12 29t12.5 28.5t28.5 11.5t28 -11t12 -29t-11 -28zM369 762q-12 -13 -29 -13t-29 12t-12 29t12.5 28.5t28.5 11.5t28 -11t12 -29t-11 -28z" />
    <glyph glyph-name="Udieresis" unicode="&#xdc;" 
d="M651 0h-76v81l-24 -15l-11 -8l-37 -24l-10 -7q-22 -15 -68.5 -27.5t-94.5 -12.5q-122 0 -203 76t-97 212q-2 10 -2 21.5v17.5q0 106 74 218q22 34 32 45q22 27 22 38q0 15 -42 54q-11 9 -20 13q-5 4 -7 12l6 6h147q11 0 6 -12q-1 -4 -10 -16q-16 -22 -17 -23
q-38 -41 -69 -126q-22 -54 -28 -118q-3 -21 -4 -52.5t-1 -33.5q0 -144 65 -222q62 -75 171 -75q28 0 57 5t58 18q56 24 81.5 50.5t25.5 55.5v430q0 32 -11 51.5t-44 49.5l-20 18h151v-700zM441 762q-12 -13 -29 -13t-29 12t-12 29t12.5 28.5t28.5 11.5t28 -11t12 -29
t-11 -28zM303 762q-12 -13 -29 -13t-29 12t-12 29t12.5 28.5t28.5 11.5t28 -11t12 -29t-11 -28z" />
    <glyph glyph-name="aacute" unicode="&#xe1;" horiz-adv-x="447" 
d="M461 0h-70l-56 112l-11 -13q-47 -51 -86 -75t-82 -29q-5 -1 -16 -1q-50 0 -84.5 34.5t-34.5 82.5q0 52 39 94t117 68q13 5 32.5 10t37.5 7l-28 55q-21 39 -63 39q-16 0 -30 -7q13 12 22 18.5t27 16.5l11 6q17 8 21 44l9 -8l6 -7q23 -25 50 -71l12 -21zM329 126l-75 149
q-32 0 -56 -9q-116 -46 -116 -128q0 -42 24.5 -69.5t65.5 -27.5q9 1 13 1q27 3 50.5 13t51.5 31q13 10 20 16.5t22 23.5zM317 522l-208 -36l-8 17q55 15 89 36t51 48q14 -24 32 -40.5t44 -24.5z" />
    <glyph glyph-name="agrave" unicode="&#xe0;" horiz-adv-x="447" 
d="M461 0h-70l-56 112l-11 -13q-47 -51 -86 -75t-82 -29q-5 -1 -16 -1q-50 0 -84.5 34.5t-34.5 82.5q0 52 39 94t117 68q13 5 32.5 10t37.5 7l-28 55q-21 39 -63 39q-16 0 -30 -7q13 12 22 18.5t27 16.5l11 6q17 8 21 44l9 -8l6 -7q23 -25 50 -71l12 -21zM329 126l-75 149
q-32 0 -56 -9q-116 -46 -116 -128q0 -42 24.5 -69.5t65.5 -27.5q9 1 13 1q27 3 50.5 13t51.5 31q13 10 20 16.5t22 23.5zM322 503l-8 -17l-208 36q27 8 44 23t32 42q18 -27 50.5 -47.5t89.5 -36.5z" />
    <glyph glyph-name="acircumflex" unicode="&#xe2;" horiz-adv-x="447" 
d="M461 0h-70l-56 112l-11 -13q-47 -51 -86 -75t-82 -29q-5 -1 -16 -1q-50 0 -84.5 34.5t-34.5 82.5q0 52 39 94t117 68q13 5 32.5 10t37.5 7l-28 55q-21 39 -63 39q-16 0 -30 -7q13 12 22 18.5t27 16.5l11 6q17 8 21 44l9 -8l6 -7q23 -25 50 -71l12 -21zM329 126l-75 149
q-32 0 -56 -9q-116 -46 -116 -128q0 -42 24.5 -69.5t65.5 -27.5q9 1 13 1q27 3 50.5 13t51.5 31q13 10 20 16.5t22 23.5zM328 504l-14 -18l-102 40q-18 -9 -63 -26q-15 -5 -43 -16l-8 18q42 17 63.5 33.5t50.5 52.5q22 -30 49 -49.5t67 -34.5z" />
    <glyph glyph-name="adieresis" unicode="&#xe4;" horiz-adv-x="447" 
d="M461 0h-70l-56 112l-11 -13q-47 -51 -86 -75t-82 -29q-5 -1 -16 -1q-50 0 -84.5 34.5t-34.5 82.5q0 52 39 94t117 68q13 5 32.5 10t37.5 7l-28 55q-21 39 -63 39q-16 0 -30 -7q13 12 22 18.5t27 16.5l11 6q17 8 21 44l9 -8l6 -7q23 -25 50 -71l12 -21zM329 126l-75 149
q-32 0 -56 -9q-116 -46 -116 -128q0 -42 24.5 -69.5t65.5 -27.5q9 1 13 1q27 3 50.5 13t51.5 31q13 10 20 16.5t22 23.5zM318 498q-12 -13 -29 -13t-29 12t-12 29t12.5 28.5t28.5 11.5t28 -11t12 -29t-11 -28zM180 498q-12 -13 -29 -13t-29 12t-12 29t12.5 28.5t28.5 11.5
t28 -11t12 -29t-11 -28z" />
    <glyph glyph-name="atilde" unicode="&#xe3;" horiz-adv-x="447" 
d="M461 0h-70l-56 112l-11 -13q-47 -51 -86 -75t-82 -29q-5 -1 -16 -1q-50 0 -84.5 34.5t-34.5 82.5q0 52 39 94t117 68q13 5 32.5 10t37.5 7l-28 55q-21 39 -63 39q-16 0 -30 -7q13 12 22 18.5t27 16.5l11 6q17 8 21 44l9 -8l6 -7q23 -25 50 -71l12 -21zM329 126l-75 149
q-32 0 -56 -9q-116 -46 -116 -128q0 -42 24.5 -69.5t65.5 -27.5q9 1 13 1q27 3 50.5 13t51.5 31q13 10 20 16.5t22 23.5zM338 532l-3 -6q-10 -18 -19 -26q-5 -5 -20 -14q-14 5 -25 11q-23 11 -46 23q-12 6 -32 6q-14 0 -29 -4.5t-33 -15.5q-5 -3 -13.5 -10.5t-13.5 -12.5
l-11 16l55 34l7 1l13 6q10 4 23 6t25 2q34 0 68 -16q13 -5 23 -5t23 4z" />
    <glyph glyph-name="aring" unicode="&#xe5;" horiz-adv-x="447" 
d="M251 486q-21 -19 -44 -19t-40.5 17.5t-17.5 41.5t17.5 41t41.5 17q13 0 23 -3.5t20 -12.5q17 -19 17 -41q0 -24 -17 -41zM238 498q11 10 11 28t-12 29t-28 11t-28.5 -11.5t-12.5 -28.5t12 -29t29 -12t29 13zM461 0h-70l-56 112l-11 -13q-47 -51 -86 -75t-82 -29
q-5 -1 -16 -1q-50 0 -84.5 34.5t-34.5 82.5q0 52 39 94t117 68q13 5 32.5 10t37.5 7l-28 55q-21 39 -63 39q-16 0 -30 -7q13 12 22 18.5t27 16.5l11 6q17 8 21 44l9 -8l6 -7q23 -25 50 -71l12 -21zM329 126l-75 149q-32 0 -56 -9q-116 -46 -116 -128q0 -42 24.5 -69.5
t65.5 -27.5q9 1 13 1q27 3 50.5 13t51.5 31q13 10 20 16.5t22 23.5z" />
    <glyph glyph-name="ccedilla" unicode="&#xe7;" horiz-adv-x="409" 
d="M396 96l-2 -9q-8 -33 -34 -54t-82 -37l-36 -7l-13 -19q30 -42 30 -79q0 -53 -52 -77q-29 -13 -50 -13t-35.5 11t-26.5 31l38 51q-3 -8 -3 -17q0 -18 13 -31q22 -25 44 -25t45 29q3 5 3 11q0 14 -14 40q-9 16 -27 44l32 44q-105 0 -162 86q-43 68 -43 135q0 56 31.5 102.5
t88.5 71.5q27 12 49 15.5t40 3.5q55 0 96 -27q26 -16 41 -40q-24 -23 -55 -33l-20 -5q3 9 3 19q0 23 -15.5 40.5t-40.5 17.5q-9 1 -13 1q-54 0 -95.5 -47.5t-41.5 -113.5q0 -22 6 -45q21 -81 73 -120l23 -14q37 -20 71 -20q48 0 97 40l29 30z" />
    <glyph glyph-name="eacute" unicode="&#xe9;" horiz-adv-x="402" 
d="M388 81l-11 -14q-33 -41 -70.5 -58t-87.5 -17q-73 0 -135 63q-31 31 -47 70t-16 81q0 6 1 14t1 12q10 71 51 115q45 48 104 56q20 3 39 3q66 0 107.5 -33t41.5 -79h-268l-3 -16q-6 -45 -6 -74q0 -28 4 -48q13 -57 57 -91.5t102 -34.5q43 0 80 20l7 3l27 17q4 4 22 11z
M297 313q-4 32 -32 54t-62 22q-17 0 -35 -6.5t-33 -21.5t-26 -39l-4 -9h192zM317 522l-208 -36l-8 17q55 15 89 36t51 48q14 -24 32 -40.5t44 -24.5z" />
    <glyph glyph-name="egrave" unicode="&#xe8;" horiz-adv-x="402" 
d="M388 81l-11 -14q-33 -41 -70.5 -58t-87.5 -17q-73 0 -135 63q-31 31 -47 70t-16 81q0 6 1 14t1 12q10 71 51 115q45 48 104 56q20 3 39 3q66 0 107.5 -33t41.5 -79h-268l-3 -16q-6 -45 -6 -74q0 -28 4 -48q13 -57 57 -91.5t102 -34.5q43 0 80 20l7 3l27 17q4 4 22 11z
M297 313q-4 32 -32 54t-62 22q-17 0 -35 -6.5t-33 -21.5t-26 -39l-4 -9h192zM316 503l-8 -17l-208 36q27 8 44 23t32 42q18 -27 50.5 -47.5t89.5 -36.5z" />
    <glyph glyph-name="ecircumflex" unicode="&#xea;" horiz-adv-x="402" 
d="M388 81l-11 -14q-33 -41 -70.5 -58t-87.5 -17q-73 0 -135 63q-31 31 -47 70t-16 81q0 6 1 14t1 12q10 71 51 115q45 48 104 56q20 3 39 3q66 0 107.5 -33t41.5 -79h-268l-3 -16q-6 -45 -6 -74q0 -28 4 -48q13 -57 57 -91.5t102 -34.5q43 0 80 20l7 3l27 17q4 4 22 11z
M297 313q-4 32 -32 54t-62 22q-17 0 -35 -6.5t-33 -21.5t-26 -39l-4 -9h192zM322 504l-14 -18l-102 40q-18 -9 -63 -26q-15 -5 -43 -16l-8 18q42 17 63.5 33.5t50.5 52.5q22 -30 49 -49.5t67 -34.5z" />
    <glyph glyph-name="edieresis" unicode="&#xeb;" horiz-adv-x="402" 
d="M388 81l-11 -14q-33 -41 -70.5 -58t-87.5 -17q-73 0 -135 63q-31 31 -47 70t-16 81q0 6 1 14t1 12q10 71 51 115q45 48 104 56q20 3 39 3q66 0 107.5 -33t41.5 -79h-268l-3 -16q-6 -45 -6 -74q0 -28 4 -48q13 -57 57 -91.5t102 -34.5q43 0 80 20l7 3l27 17q4 4 22 11z
M297 313q-4 32 -32 54t-62 22q-17 0 -35 -6.5t-33 -21.5t-26 -39l-4 -9h192zM306 498q-12 -13 -29 -13t-29 12t-12 29t12.5 28.5t28.5 11.5t28 -11t12 -29t-11 -28zM168 498q-12 -13 -29 -13t-29 12t-12 29t12.5 28.5t28.5 11.5t28 -11t12 -29t-11 -28z" />
    <glyph glyph-name="iacute" unicode="&#xed;" horiz-adv-x="163" 
d="M128 0h-90l9 22q4 12 4 25v262q0 27 -6 38.5t-26 25.5l-33 19h128v-345l3 -24q1 -4 3 -8q3 -8 8 -15zM182 522l-208 -36l-8 17q55 15 89 36t51 48q14 -24 32 -40.5t44 -24.5z" />
    <glyph glyph-name="igrave" unicode="&#xec;" horiz-adv-x="163" 
d="M128 0h-90l9 22q4 12 4 25v262q0 27 -6 38.5t-26 25.5l-33 19h128v-345l3 -24q1 -4 3 -8q3 -8 8 -15zM187 503l-8 -17l-208 36q27 8 44 23t32 42q18 -27 50.5 -47.5t89.5 -36.5z" />
    <glyph glyph-name="icircumflex" unicode="&#xee;" horiz-adv-x="163" 
d="M128 0h-90l9 22q4 12 4 25v262q0 27 -6 38.5t-26 25.5l-33 19h128v-345l3 -24q1 -4 3 -8q3 -8 8 -15zM196 504l-14 -18l-102 40q-18 -9 -63 -26q-15 -5 -43 -16l-8 18q42 17 63.5 33.5t50.5 52.5q22 -30 49 -49.5t67 -34.5z" />
    <glyph glyph-name="idieresis" unicode="&#xef;" horiz-adv-x="163" 
d="M128 0h-90l9 22q4 12 4 25v262q0 27 -6 38.5t-26 25.5l-33 19h128v-345l3 -24q1 -4 3 -8q3 -8 8 -15zM177 498q-12 -13 -29 -13t-29 12t-12 29t12.5 28.5t28.5 11.5t28 -11t12 -29t-11 -28zM39 498q-12 -13 -29 -13t-29 12t-12 29t12.5 28.5t28.5 11.5t28 -11t12 -29
t-11 -28z" />
    <glyph glyph-name="ntilde" unicode="&#xf1;" horiz-adv-x="452" 
d="M419 245q5 -32 5 -71q0 -36 -2 -62.5t-10 -66.5l-10 -45h-64q22 48 26 98q0 142 -35 206.5t-103 64.5q-18 0 -36 -5q-36 -13 -54.5 -32.5t-18.5 -38.5v-246q0 -11 4 -24q1 -7 9 -23h-91q15 19 15 47v237q0 32 -17.5 59.5t-48.5 42.5l-9 4l33 1q24 0 44 2.5t42 8.5l9 1
l10 3v-55l7 4l11 7l27 14q54 25 102 25q61 0 102 -41t53 -115zM338 532l-3 -6q-10 -18 -19 -26q-5 -5 -20 -14q-14 5 -25 11q-23 11 -46 23q-12 6 -32 6q-14 0 -29 -4.5t-33 -15.5q-5 -3 -13.5 -10.5t-13.5 -12.5l-11 16l55 34l7 1l13 6q10 4 23 6t25 2q34 0 68 -16
q13 -5 23 -5t23 4z" />
    <glyph glyph-name="oacute" unicode="&#xf3;" horiz-adv-x="458" 
d="M437 196q0 -75 -39 -128t-107 -72q-35 -9 -67 -9q-86 0 -144.5 59.5t-58.5 149.5q0 74 38.5 126.5t107.5 73.5q34 8 62 8q30 0 62 -8q69 -21 107.5 -73.5t38.5 -126.5zM365 196q0 89 -39.5 139t-96.5 50q-58 0 -95 -48q-41 -53 -41 -145q0 -24 5 -52q15 -66 48.5 -99.5
t82.5 -33.5q58 0 95 47q41 52 41 142zM323 522l-208 -36l-8 17q55 15 89 36t51 48q14 -24 32 -40.5t44 -24.5z" />
    <glyph glyph-name="ograve" unicode="&#xf2;" horiz-adv-x="458" 
d="M437 196q0 -75 -39 -128t-107 -72q-35 -9 -67 -9q-86 0 -144.5 59.5t-58.5 149.5q0 74 38.5 126.5t107.5 73.5q34 8 62 8q30 0 62 -8q69 -21 107.5 -73.5t38.5 -126.5zM365 196q0 89 -39.5 139t-96.5 50q-58 0 -95 -48q-41 -53 -41 -145q0 -24 5 -52q15 -66 48.5 -99.5
t82.5 -33.5q58 0 95 47q41 52 41 142zM331 503l-8 -17l-208 36q27 8 44 23t32 42q18 -27 50.5 -47.5t89.5 -36.5z" />
    <glyph glyph-name="ocircumflex" unicode="&#xf4;" horiz-adv-x="458" 
d="M437 196q0 -75 -39 -128t-107 -72q-35 -9 -67 -9q-86 0 -144.5 59.5t-58.5 149.5q0 74 38.5 126.5t107.5 73.5q34 8 62 8q30 0 62 -8q69 -21 107.5 -73.5t38.5 -126.5zM365 196q0 89 -39.5 139t-96.5 50q-58 0 -95 -48q-41 -53 -41 -145q0 -24 5 -52q15 -66 48.5 -99.5
t82.5 -33.5q58 0 95 47q41 52 41 142zM346 504l-14 -18l-102 40q-18 -9 -63 -26q-15 -5 -43 -16l-8 18q42 17 63.5 33.5t50.5 52.5q22 -30 49 -49.5t67 -34.5z" />
    <glyph glyph-name="odieresis" unicode="&#xf6;" horiz-adv-x="458" 
d="M437 196q0 -75 -39 -128t-107 -72q-35 -9 -67 -9q-86 0 -144.5 59.5t-58.5 149.5q0 74 38.5 126.5t107.5 73.5q34 8 62 8q30 0 62 -8q69 -21 107.5 -73.5t38.5 -126.5zM365 196q0 89 -39.5 139t-96.5 50q-58 0 -95 -48q-41 -53 -41 -145q0 -24 5 -52q15 -66 48.5 -99.5
t82.5 -33.5q58 0 95 47q41 52 41 142zM324 498q-12 -13 -29 -13t-29 12t-12 29t12.5 28.5t28.5 11.5t28 -11t12 -29t-11 -28zM186 498q-12 -13 -29 -13t-29 12t-12 29t12.5 28.5t28.5 11.5t28 -11t12 -29t-11 -28z" />
    <glyph glyph-name="otilde" unicode="&#xf5;" horiz-adv-x="458" 
d="M437 196q0 -75 -39 -128t-107 -72q-35 -9 -67 -9q-86 0 -144.5 59.5t-58.5 149.5q0 74 38.5 126.5t107.5 73.5q34 8 62 8q30 0 62 -8q69 -21 107.5 -73.5t38.5 -126.5zM365 196q0 89 -39.5 139t-96.5 50q-58 0 -95 -48q-41 -53 -41 -145q0 -24 5 -52q15 -66 48.5 -99.5
t82.5 -33.5q58 0 95 47q41 52 41 142zM347 532l-3 -6q-10 -18 -19 -26q-5 -5 -20 -14q-14 5 -25 11q-23 11 -46 23q-12 6 -32 6q-14 0 -29 -4.5t-33 -15.5q-5 -3 -13.5 -10.5t-13.5 -12.5l-11 16l55 34l7 1l13 6q10 4 23 6t25 2q34 0 68 -16q13 -5 23 -5t23 4z" />
    <glyph glyph-name="uacute" unicode="&#xfa;" horiz-adv-x="471" 
d="M432 0h-76v48l-7 -6l-7 -6q-60 -44 -133 -44h-12q-7 0 -21 2q-70 10 -109 55.5t-39 119.5q0 58 34 110l16 24q1 3 1 10q0 10 -5.5 23t-18.5 31l-17 25h105l4 -3q2 -5 3 -7q3 -5 3 -7q0 -5 -7 -19q-16 -28 -29.5 -53t-19 -58t-5.5 -63q0 -72 33.5 -110.5t98.5 -43.5
q6 -1 12 -1h12q51 0 79.5 19t28.5 43v232q0 21 -15 43q-6 8 -13.5 15t-17.5 13h122q-13 -20 -13 -47v-298q0 -17 9 -38zM341 522l-208 -36l-8 17q55 15 89 36t51 48q14 -24 32 -40.5t44 -24.5z" />
    <glyph glyph-name="ugrave" unicode="&#xf9;" horiz-adv-x="471" 
d="M432 0h-76v48l-7 -6l-7 -6q-60 -44 -133 -44h-12q-7 0 -21 2q-70 10 -109 55.5t-39 119.5q0 58 34 110l16 24q1 3 1 10q0 10 -5.5 23t-18.5 31l-17 25h105l4 -3q2 -5 3 -7q3 -5 3 -7q0 -5 -7 -19q-16 -28 -29.5 -53t-19 -58t-5.5 -63q0 -72 33.5 -110.5t98.5 -43.5
q6 -1 12 -1h12q51 0 79.5 19t28.5 43v232q0 21 -15 43q-6 8 -13.5 15t-17.5 13h122q-13 -20 -13 -47v-298q0 -17 9 -38zM331 503l-8 -17l-208 36q27 8 44 23t32 42q18 -27 50.5 -47.5t89.5 -36.5z" />
    <glyph glyph-name="ucircumflex" unicode="&#xfb;" horiz-adv-x="471" 
d="M432 0h-76v48l-7 -6l-7 -6q-60 -44 -133 -44h-12q-7 0 -21 2q-70 10 -109 55.5t-39 119.5q0 58 34 110l16 24q1 3 1 10q0 10 -5.5 23t-18.5 31l-17 25h105l4 -3q2 -5 3 -7q3 -5 3 -7q0 -5 -7 -19q-16 -28 -29.5 -53t-19 -58t-5.5 -63q0 -72 33.5 -110.5t98.5 -43.5
q6 -1 12 -1h12q51 0 79.5 19t28.5 43v232q0 21 -15 43q-6 8 -13.5 15t-17.5 13h122q-13 -20 -13 -47v-298q0 -17 9 -38zM346 504l-14 -18l-102 40q-18 -9 -63 -26q-15 -5 -43 -16l-8 18q42 17 63.5 33.5t50.5 52.5q22 -30 49 -49.5t67 -34.5z" />
    <glyph glyph-name="udieresis" unicode="&#xfc;" horiz-adv-x="471" 
d="M432 0h-76v48l-7 -6l-7 -6q-60 -44 -133 -44h-12q-7 0 -21 2q-70 10 -109 55.5t-39 119.5q0 58 34 110l16 24q1 3 1 10q0 10 -5.5 23t-18.5 31l-17 25h105l4 -3q2 -5 3 -7q3 -5 3 -7q0 -5 -7 -19q-16 -28 -29.5 -53t-19 -58t-5.5 -63q0 -72 33.5 -110.5t98.5 -43.5
q6 -1 12 -1h12q51 0 79.5 19t28.5 43v232q0 21 -15 43q-6 8 -13.5 15t-17.5 13h122q-13 -20 -13 -47v-298q0 -17 9 -38zM333 498q-12 -13 -29 -13t-29 12t-12 29t12.5 28.5t28.5 11.5t28 -11t12 -29t-11 -28zM195 498q-12 -13 -29 -13t-29 12t-12 29t12.5 28.5t28.5 11.5
t28 -11t12 -29t-11 -28z" />
    <glyph glyph-name="cent" unicode="&#xa2;" horiz-adv-x="443" 
d="M408 100q-11 -39 -41 -66t-70 -35q-17 -3 -33 -3q-9 0 -14 1q0 -35 9 -70h-28h-28q9 35 9 70q-48 6 -86.5 32.5t-63.5 73.5q-14 26 -21 53.5t-7 52.5q0 56 32 101t91 70q21 10 42 14l13 3q0 20 -7 36.5t-32 49.5l-11 14h88v-98l12 -1q73 -8 118 -65q-10 -8 -18.5 -14
t-17.5 -10q-17 -10 -40 -13q3 9 3 18q0 23 -16.5 39.5t-40.5 16.5v-345q15 -3 29 -3q53 0 111 58l12 12zM212 37v332l-15 -5q-95 -47 -95 -148q0 -33 12 -69q27 -80 98 -110z" />
    <glyph glyph-name="sterling" unicode="&#xa3;" horiz-adv-x="547" 
d="M541 93l-11 -32l-20 -60l-10 -32q-51 14 -84 19t-98 5l-105 4l-27 1l-66 1l-42 1h-19h-26l19 13q37 31 37 74v245l-8 1q-33 0 -60 -15q2 5 3 7q3 7 8 12q22 30 57 33v180q0 15 -3 29t-11 29l-23 34l-2 5l-9 16l16 -4q20 -4 37 -7.5t28 -3.5q18 0 42.5 14.5t42.5 24.5
l18 10q6 5 22 8.5t38 3.5q24 0 35 -1t36 -8q60 -14 89 -57l-15 -1q-30 0 -49.5 -13.5t-30.5 -38.5l4 22l3 32q0 17 -17.5 31t-43.5 14q-51 0 -87 -38q-22 -22 -33 -47t-11 -52v-172l7 1l11 1q8 1 22 1h19l47 -9l8 -2l63 -8l13 -3q-13 -13 -31 -23q-18 -7 -39 -7q-19 0 -35 4
t-31.5 6.5t-25.5 2.5q-13 0 -28 -3v-292q0 -10 15 -17t55 -11q7 -1 20 -1q14 0 33.5 2t37.5 3q132 15 215 68z" />
    <glyph glyph-name="section" unicode="&#xa7;" horiz-adv-x="456" 
d="M387 273q-31 -44 -92 -60l27 -11q63 -30 63 -96q0 -48 -37 -89q-27 -30 -67.5 -47t-89.5 -17q-39 0 -76 10l-49 18l4 10l14 32q5 9 5 28q0 11 -1 18l4 -10q20 -46 50 -66t78 -20q58 0 90.5 31.5t32.5 79.5q-4 40 -33.5 60.5t-122.5 46.5l-43 11q-24 6 -46 17
q-63 32 -63 102q0 38 24 71q31 44 92 60l-27 11q-63 30 -63 96q0 48 37 89q27 30 67.5 47t89.5 17q39 0 76 -10l49 -18l-4 -10l-14 -32q-5 -9 -5 -28q0 -11 1 -18l-4 10q-20 46 -50 66t-78 20q-58 0 -90.5 -31.5t-32.5 -79.5q4 -40 33.5 -60.5t122.5 -46.5l43 -11
q24 -6 46 -17q63 -32 63 -102q0 -38 -24 -71zM341 387q-17 15 -50 27t-109 30q-21 -3 -45 -12l-18 -8q-47 -27 -47 -78q0 -39 33 -68q17 -15 50 -27t109 -30q21 3 45 12l18 8q47 27 47 78q0 39 -33 68z" />
    <glyph glyph-name="bullet" unicode="&#x2022;" horiz-adv-x="288" 
d="M240 300q0 -39 -29 -68t-69 -29t-68.5 28.5t-28.5 68.5t28.5 68.5t68.5 28.5t69 -28t29 -69z" />
    <glyph glyph-name="germandbls" unicode="&#xdf;" horiz-adv-x="513" 
d="M457 197q25 -22 25 -75q0 -61 -34.5 -90t-80.5 -38q-30 -6 -56 -6q-70 0 -113.5 35.5t-48.5 92.5l10 4l4 2l25 9l9 3q18 6 46 30l-5 -8q-7 -14 -10 -27.5t-3 -27.5q0 -34 21.5 -57.5t59.5 -28.5q14 -2 20 -2q30 0 53 14t34 36q7 17 7 41q0 31 -11.5 58t-26 32.5t-46.5 17
t-71 28.5q-3 2 -14 5t-19 6q-52 25 -52 74q0 35 29 64q2 2 66 41q49 30 49 54q0 53 -39 73q-25 13 -70 13h-16q-24 0 -46.5 -20.5t-33.5 -61.5q-7 -25 -7 -46v-658l-62 -49v705q0 24 -11 44.5t-38 45.5l-17 17l54 -6q15 -3 20 -3q7 -1 15 -1q16 0 39 15q33 21 53.5 29.5
t37.5 8.5q12 0 28.5 -2.5t46.5 -6.5t63 -20q51 -24 51 -61q0 -32 -51 -61q-68 -39 -81 -54q-23 -26 -23 -51q0 -33 42 -59q20 -12 39.5 -21t46.5 -20q1 -1 14.5 -4t15.5 -4q20 -7 28 -10q21 -8 34 -19z" />
    <glyph glyph-name="registered" unicode="&#xae;" horiz-adv-x="768" 
d="M719 316q0 -139 -98 -237t-237 -98q-140 0 -237.5 97.5t-97.5 237.5t97.5 237.5t237.5 97.5q139 0 237 -98t98 -237zM681 316q0 123 -87.5 209.5t-210.5 86.5q-122 0 -209 -87t-87 -210q0 -122 87 -209t210 -87q122 0 209.5 86.5t87.5 210.5zM580 147h-92l-129 172h-26
v-127q0 -15 14 -21.5t32 -6.5v-17h-155v17q21 0 34 6t13 20v280q0 21 -6 25t-37 4v17h163q27 0 42 -1.5t31 -7.5t28 -14q17 -12 23 -22.5t9 -23t3 -22.5q0 -22 -8.5 -40t-22 -30t-24.5 -17q-20 -10 -43 -10l116 -150q5 -7 12.5 -10.5t22.5 -3.5v-17zM461 430q-3 34 -24 50
q-15 12 -33 12l-51 4q-8 0 -14.5 -5.5t-6.5 -14.5l1 -135h16q17 0 28 1t26 7q59 20 59 69q0 8 -1 12z" />
    <glyph glyph-name="copyright" unicode="&#xa9;" horiz-adv-x="768" 
d="M720 321q0 -140 -97 -238t-238 -98q-139 0 -237 98t-98 238t97.5 237.5t237.5 97.5t237.5 -97.5t97.5 -237.5zM682 321q0 122 -87 209t-210 87q-122 0 -209.5 -86.5t-87.5 -209.5t87 -210t210 -87q122 0 209.5 86.5t87.5 210.5zM535 196q-32 -32 -51 -44q-42 -27 -93 -27
q-20 0 -30 1t-32 7q-60 16 -93 66.5t-33 113.5q0 49 18.5 89.5t57.5 68.5q26 18 54 26.5t52 8.5q30 0 63 -9q13 -4 27 -8q4 -1 12 -1q20 0 23 16h19l4 -125h-20q-4 24 -18 47q-19 31 -48 44q-10 4 -25 7t-25 3q-56 0 -92 -45q-19 -24 -29 -57t-10 -66q0 -62 30 -106t84 -44
q48 0 74 7.5t58 34.5l12 10z" />
    <glyph glyph-name="trademark" unicode="&#x2122;" horiz-adv-x="865" 
d="M831 285h-155v17q25 0 37 5.5t12 22.5v269l-130 -314h-18l-140 298v-253q0 -16 12.5 -22t37.5 -6v-17h-125v17q25 0 37 5.5t12 22.5v273q0 21 -9 27.5t-28 6.5h-14v17h111l128 -280l122 280h109v-17q-24 0 -35.5 -3.5t-11.5 -21.5v-282q0 -16 12 -22t36 -6v-17zM332 560
l-18 -1q0 35 -17 54t-58 19l-36 1v-303q0 -16 12.5 -22t36.5 -6v-17h-156v17q25 0 37.5 5.5t12.5 22.5v303l-36 -1q-40 0 -57.5 -19t-17.5 -54l-18 1l3 94h309z" />
    <glyph glyph-name="acute" unicode="&#xb4;" horiz-adv-x="0" 
d="M317 522l-208 -36l-8 17q55 15 89 36t51 48q14 -24 32 -40.5t44 -24.5z" />
    <glyph glyph-name="dieresis" unicode="&#xa8;" horiz-adv-x="0" 
d="M333 498q-12 -13 -29 -13t-29 12t-12 29t12.5 28.5t28.5 11.5t28 -11t12 -29t-11 -28zM195 498q-12 -13 -29 -13t-29 12t-12 29t12.5 28.5t28.5 11.5t28 -11t12 -29t-11 -28z" />
    <glyph glyph-name="AE" unicode="&#xc6;" horiz-adv-x="1186" 
d="M1163 700l-6 -5l-5 -5q-18 -17 -28.5 -39t-10.5 -48v-12q-38 39 -85.5 59t-116.5 20q-21 0 -40 -0.5t-43 -4.5q-103 -17 -160.5 -61t-82.5 -106h381l25 2q76 10 122 47v-30v-56v-30l-21 14q-31 19 -58.5 26.5t-67.5 7.5h-389l-5 -12l-4 -11l-8 -26q-7 -29 -10.5 -55
t-3.5 -56q0 -91 42 -159.5t107 -105.5t143 -37q14 0 30 1.5t36 5.5q75 16 126.5 51.5t82.5 91.5v-37v-36q-73 -70 -184 -93q-52 -11 -109 -11q-76 0 -145 25l14 -15h-123q-15 44 -30 80t-47 106l-31 67l-21 43q-11 26 -21 44.5t-20 39.5l-8 16l-10 18l-20 -26l-15 -19
l-83 -105l-102 -126l-83 -105l-35 -45q-13 51 -13 107q0 88 36.5 175.5t106.5 162.5q63 65 144 109l-5 12q-30 69 -62 101.5t-81 46.5l32 -1l13 -1l74 -2h12q26 2 33 2q15 0 29 -27q29 -65 62 -138l48 -111q30 125 117 197q94 77 237 77l37 2h46h257zM370 430l-44 89
q-34 -5 -63 -28.5t-80 -88.5q-22 -29 -38.5 -64.5t-24 -68.5t-9 -41.5t-1.5 -24.5q0 -17 -0.5 -30.5t-0.5 -24.5q0 -24 9 -33z" />
    <glyph glyph-name="Oslash" unicode="&#xd8;" horiz-adv-x="828" 
d="M779 218q-37 -105 -135 -170t-230 -65q-57 0 -104 11t-92 33l-9 -14q-19 -31 -25.5 -42.5t-16.5 -35.5h-28h-28l12 16l14 18l18 23l15 20l7 11l9 14l4 6q-76 48 -119 128.5t-43 178.5q0 160 106.5 263.5t279.5 103.5q52 0 100.5 -11t89.5 -31q9 18 13.5 34t4.5 31l-3 37
h97l-80 -120q78 -49 122 -128.5t44 -174.5q0 -35 -5 -67t-18 -69zM707 350q0 85 -25.5 151.5t-73.5 112.5l-365 -548q41 -30 85 -44t86 -14q43 0 87 14q95 31 150.5 117t55.5 211zM583 635q-34 27 -78 41.5t-91 14.5q-46 0 -86 -13q-95 -31 -149 -115q-57 -88 -57 -213
q0 -86 25 -151.5t72 -111.5l354 530l7 13z" />
    <glyph glyph-name="yen" unicode="&#xa5;" 
d="M707 270h-56v-155q0 -162 -85 -249t-250 -87q-25 0 -58 3t-66 8q-57 11 -107 34q29 11 49 22t46 32l9 6l7 6q21 -37 62 -58.5t98 -21.5h16q12 2 18 2q78 8 117 59t62 177l4 28q-36 -37 -84 -58.5t-112 -28.5q-8 0 -19.5 -1t-24.5 -1q-125 0 -206 75.5t-97 212.5
q-2 10 -2 21.5v17.5q0 106 74 218q22 34 32 45q22 27 22 38q0 15 -42 53q-9 10 -20 14l-2 3q0 9 3 13q1 1 3 2h133q7 -2 9 -4q7 -5 7 -9t-28 -38q-37 -38 -70 -127q-21 -54 -27 -117q-3 -20 -4 -40t-1 -45q0 -145 66 -224q63 -76 172 -76q14 0 28.5 1t30.5 4.5t24.5 6
t29.5 10.5q56 25 81.5 52.5t25.5 56.5v119h-190v57h190v78h-190v57h190v119q0 35 -14 56t-53 46l-8 13l11 4h140v-238h56v-57h-56v-78h56v-57z" />
    <glyph glyph-name="mu" unicode="&#xb5;" horiz-adv-x="471" 
d="M432 0h-76v48l-7 -6l-7 -6q-60 -44 -133 -44h-12q-7 0 -21 2q-45 6 -82 33v-142l3 -24q1 -4 3 -8q3 -8 8 -15h-90l9 22q4 12 4 25v237q-4 20 -4.5 29t-0.5 14q0 30 8.5 57.5t27.5 56.5l16 24q1 3 1 10q0 10 -5.5 23t-18.5 31l-17 25h105l4 -3q2 -5 3 -7q3 -5 3 -7
q0 -5 -7 -19q-16 -28 -29.5 -53t-19 -58t-5.5 -63q0 -72 33.5 -110.5t98.5 -43.5q6 -1 12 -1h12q51 0 79.5 19t28.5 43v232q0 21 -15 43q-6 8 -13.5 15t-17.5 13h122q-13 -20 -13 -47v-298q0 -17 9 -38z" />
    <glyph glyph-name="ordfeminine" unicode="&#xaa;" horiz-adv-x="268" 
d="M277 387h-42l-34 73l-7 -9q-28 -34 -51.5 -49t-48.5 -18q-33 -4 -57 18.5t-24 56.5q0 35 22.5 61.5t70.5 43.5q14 6 23 8.5t19 2.5l-17 36q-11 25 -38 25q-9 0 -17 -4q12 12 29 23l7 4q9 5 12 28l6 -5l3 -4q13 -14 30 -47l7 -13zM197 469l-45 97q-16 0 -33 -6
q-35 -14 -51.5 -34.5t-18.5 -48.5q0 -29 16 -46t43 -17q19 0 32 6.5t32 22.5q15 12 25 26z" />
    <glyph glyph-name="ordmasculine" unicode="&#xba;" horiz-adv-x="275" 
d="M262 535q0 -49 -23 -83t-64 -47q-20 -6 -39 -6q-52 0 -87.5 38.5t-35.5 97.5q0 101 87 130q20 6 38 6q19 0 37 -6q42 -14 64.5 -47.5t22.5 -82.5zM219 535q0 58 -24 90.5t-58 32.5q-35 0 -58 -32t-23 -93l3 -34q18 -86 78 -86q35 0 58.5 32t23.5 90z" />
    <glyph glyph-name="ae" unicode="&#xe6;" horiz-adv-x="696" 
d="M683 81l-11 -14q-33 -41 -70.5 -58t-87.5 -17q-73 0 -135 63q-27 27 -42 59l-2 -2l-11 -13q-47 -51 -86 -75t-82 -29q-5 -1 -16 -1q-50 0 -84.5 34.5t-34.5 82.5q0 52 39 94t117 68q13 5 32.5 10t37.5 7l-28 55q-21 39 -63 39q-16 0 -30 -7q13 12 22 18.5t27 16.5l11 6
q17 8 21 44l9 -8l6 -7q23 -25 50 -71l12 -21l41 -89q15 50 44 81q45 48 104 56q20 3 39 3q66 0 107.5 -33t41.5 -79h-268l-3 -16q-6 -45 -6 -74q0 -28 4 -48q13 -57 57 -91.5t102 -34.5q43 0 80 20l7 3l27 17q4 4 22 11zM592 313q-4 32 -32 54t-62 22q-17 0 -35 -6.5
t-33 -21.5t-26 -39l-4 -9h192zM329 126l-75 149q-32 0 -56 -9q-116 -46 -116 -128q0 -42 24.5 -69.5t65.5 -27.5q9 1 13 1q27 3 50.5 13t51.5 31q13 10 20 16.5t22 23.5z" />
    <glyph glyph-name="oslash" unicode="&#xf8;" horiz-adv-x="458" 
d="M437 196q0 -75 -39 -128t-107 -72q-35 -9 -66 -9q-58 0 -105 28l-4 -7l-13 -24q-11 -22 -20 -41.5t-15 -36.5h-28h-28l11 16l12 18l16 23l13 20l6 11l8 14l17 24q-35 29 -54.5 71t-19.5 93q0 74 38.5 126.5t107.5 73.5q34 8 62 8q30 0 62 -8l35 -14q8 18 10.5 31.5
t2.5 33.5l-7 37h97l-77 -117q41 -27 63 -71t22 -100zM312 350q-35 35 -83 35q-58 0 -95 -48q-41 -53 -41 -145q0 -24 5 -52q10 -41 25 -68l177 252l6 13zM365 196q0 42 -9.5 76.5t-27.5 58.5l-187 -284q36 -40 88 -40q58 0 95 47q41 52 41 142z" />
    <glyph glyph-name="questiondown" unicode="&#xbf;" horiz-adv-x="420" 
d="M273 340q0 -22 -16 -38t-39 -16q-22 0 -38 16t-16 38t16 38t38 16q23 0 39 -16t16 -38zM366 -99q38 -44 38 -87q0 -60 -70 -109q-46 -30 -104 -30q-36 0 -75 12q-81 25 -116 96q-22 40 -22 87q0 65 29 109t91 79t62 74q0 28 -29 60l-16 17l-2 3l25 -1l12 -1l43 -4l5 -1
l32 4l19 -2q-5 -41 -25.5 -70t-95.5 -99t-75 -176q0 -73 26.5 -113.5t72.5 -50.5q14 -3 27 -3q52 0 89.5 38.5t37.5 101.5q0 31 -6.5 53.5t-23.5 45.5q30 -11 51 -33z" />
    <glyph glyph-name="exclamdown" unicode="&#xa1;" horiz-adv-x="198" 
d="M132 341q0 -22 -15.5 -38t-38.5 -16t-39 16t-16 38t16 38t39 16t38.5 -16t15.5 -38zM186 -257q-35 -4 -56 -13.5t-72 -41.5l-32 -20l3 10l3 9l4 14q6 24 9 48t3 35v385l-3 23l-12 22h45h46q-6 -7 -11 -20t-4 -25l18 -347q0 -46 49 -74z" />
    <glyph glyph-name="ellipsis" unicode="&#x2026;" horiz-adv-x="600" 
d="M543 6q-17 -17 -39 -17q-21 0 -37.5 16.5t-16.5 38.5t17 38t37 16q21 0 38 -16t17 -38q0 -23 -16 -38zM343 6q-17 -17 -39 -17q-21 0 -37.5 16.5t-16.5 38.5t17 38t37 16q21 0 38 -16t17 -38q0 -23 -16 -38zM143 6q-17 -17 -39 -17q-21 0 -37.5 16.5t-16.5 38.5t17 38
t37 16q21 0 38 -16t17 -38q0 -23 -16 -38z" />
    <glyph glyph-name="Agrave" unicode="&#xc0;" horiz-adv-x="669" 
d="M689 0h-123q-15 44 -30 80t-47 106l-31 67l-21 43q-11 26 -21 44.5t-20 39.5l-8 16l-10 18l-20 -26l-15 -19l-83 -105l-102 -126l-83 -105l-35 -45q-13 51 -13 107q0 88 36.5 175.5t106.5 162.5q63 65 144 109l-5 12q-30 69 -62 101.5t-81 46.5l32 -1l13 -1l74 -2h12
q26 2 33 2q15 0 29 -27q29 -65 62 -138l75 -175l13 -31l60 -135q32 -75 58 -116q23 -36 62 -78zM370 430l-44 89q-34 -5 -63 -28.5t-80 -88.5q-22 -29 -38.5 -64.5t-24 -68.5t-9 -41.5t-1.5 -24.5q0 -17 -0.5 -30.5t-0.5 -24.5q0 -24 9 -33zM352 767l-8 -17l-208 36
q27 8 44 23t32 42q18 -27 50.5 -47.5t89.5 -36.5z" />
    <glyph glyph-name="Atilde" unicode="&#xc3;" horiz-adv-x="669" 
d="M689 0h-123q-15 44 -30 80t-47 106l-31 67l-21 43q-11 26 -21 44.5t-20 39.5l-8 16l-10 18l-20 -26l-15 -19l-83 -105l-102 -126l-83 -105l-35 -45q-13 51 -13 107q0 88 36.5 175.5t106.5 162.5q63 65 144 109l-5 12q-30 69 -62 101.5t-81 46.5l32 -1l13 -1l74 -2h12
q26 2 33 2q15 0 29 -27q29 -65 62 -138l75 -175l13 -31l60 -135q32 -75 58 -116q23 -36 62 -78zM370 430l-44 89q-34 -5 -63 -28.5t-80 -88.5q-22 -29 -38.5 -64.5t-24 -68.5t-9 -41.5t-1.5 -24.5q0 -17 -0.5 -30.5t-0.5 -24.5q0 -24 9 -33zM386 796l-3 -6q-10 -18 -19 -26
q-5 -5 -20 -14q-14 5 -25 11q-23 11 -46 23q-12 6 -32 6q-14 0 -29 -4.5t-33 -15.5q-5 -3 -13.5 -10.5t-13.5 -12.5l-11 16l55 34l7 1l13 6q10 4 23 6t25 2q34 0 68 -16q13 -5 23 -5t23 4z" />
    <glyph glyph-name="Otilde" unicode="&#xd5;" horiz-adv-x="828" 
d="M779 218q-37 -105 -135 -170t-230 -65q-172 0 -279 103t-107 264q0 160 106.5 263.5t279.5 103.5q171 0 279.5 -103.5t108.5 -257.5q0 -36 -5 -68t-18 -70zM707 350q0 125 -55.5 210.5t-150.5 117.5q-40 13 -87 13q-46 0 -86 -13q-95 -31 -149 -115q-57 -88 -57 -213
t55.5 -211t150.5 -117q44 -14 86 -14q43 0 87 14q95 31 150.5 117t55.5 211zM530 796l-3 -6q-10 -18 -19 -26q-5 -5 -20 -14q-14 5 -25 11q-23 11 -46 23q-12 6 -32 6q-14 0 -29 -4.5t-33 -15.5q-5 -3 -13.5 -10.5t-13.5 -12.5l-11 16l55 34l7 1l13 6q10 4 23 6t25 2
q34 0 68 -16q13 -5 23 -5t23 4z" />
    <glyph glyph-name="OE" unicode="&#x152;" horiz-adv-x="1436" 
d="M1416 700l-6 -5l-5 -5q-18 -17 -28.5 -39t-10.5 -48v-12q-38 39 -85.5 59t-116.5 20q-21 0 -40 -0.5t-43 -4.5q-103 -17 -160.5 -61t-82.5 -106h381l25 2q76 10 122 47v-30v-56v-30l-21 14q-31 19 -58.5 26.5t-67.5 7.5h-389l-5 -12l-4 -11l-8 -26q-7 -29 -10.5 -55
t-3.5 -56q0 -91 42 -159.5t107 -105.5t143 -37q14 0 30 1.5t36 5.5q75 16 126.5 51.5t82.5 91.5v-37v-36q-73 -70 -184 -93q-52 -11 -109 -11q-110 0 -192 45.5t-127 127.5q-47 -83 -136.5 -131.5t-203.5 -48.5q-172 0 -279 103t-107 264q0 160 106.5 263.5t279.5 103.5
q115 0 207 -59q85 -54 133 -147q44 85 123 134q86 53 199 53l37 2h46h257zM707 350q0 125 -55.5 210.5t-150.5 117.5q-40 13 -87 13q-46 0 -86 -13q-95 -31 -149 -115q-57 -88 -57 -213t55.5 -211t150.5 -117q44 -14 86 -14q43 0 87 14q95 31 150.5 117t55.5 211z" />
    <glyph glyph-name="oe" unicode="&#x153;" horiz-adv-x="745" 
d="M737 81l-11 -14q-33 -41 -70.5 -58t-87.5 -17q-73 0 -135 63l-24 29q-39 -67 -118 -88q-35 -9 -67 -9q-86 0 -144.5 59.5t-58.5 149.5q0 74 38.5 126.5t107.5 73.5q34 8 62 8q30 0 62 -8q36 -11 63 -30.5t47 -47.5l22 29q45 48 104 56q20 3 39 3q66 0 107.5 -33t41.5 -79
h-268l-3 -16q-6 -45 -6 -74q0 -28 4 -48q13 -57 57 -91.5t102 -34.5q43 0 80 20l7 3l27 17q4 4 22 11zM646 313q-4 32 -32 54t-62 22q-17 0 -35 -6.5t-33 -21.5t-26 -39l-4 -9h192zM370 195q0 89 -44 142q-40 48 -97 48q-58 0 -95 -48q-41 -53 -41 -145q0 -24 5 -52
q15 -66 48.5 -99.5t82.5 -33.5q57 0 97 47q44 52 44 141z" />
    <glyph glyph-name="endash" unicode="&#x2013;" horiz-adv-x="400" 
d="M400 185h-400v78h400v-78z" />
    <glyph glyph-name="emdash" unicode="&#x2014;" horiz-adv-x="800" 
d="M800 185h-800v78h800v-78z" />
    <glyph glyph-name="quotedblleft" unicode="&#x201c;" horiz-adv-x="284" 
d="M254 533q3 -19 -10 -36t-33 -17q-23 0 -41 17t-18 45q0 25 7.5 48t32 56t59.5 51q-32 -24 -32 -61q0 -12 5 -29q2 -8 10 -22q15 -23 20 -52zM130 533q3 -19 -10 -36t-33 -17q-23 0 -41 17t-18 45q0 25 7.5 48t32 56t59.5 51q-32 -24 -32 -61q0 -12 5 -29q2 -8 10 -22
q15 -23 20 -52z" />
    <glyph glyph-name="quotedblright" unicode="&#x201d;" horiz-adv-x="278" 
d="M251 655q0 -26 -8 -48.5t-31 -54.5t-60 -52q31 25 31 61q0 12 -3.5 24t-4.5 16q-2 5 -5 11q-8 11 -13 23.5t-8 28.5q-3 20 10.5 36.5t33.5 16.5q22 0 40 -17t18 -45zM127 655q0 -26 -8 -48.5t-31 -54.5t-60 -52q31 25 31 61q0 12 -3.5 24t-4.5 16q-2 5 -5 11
q-8 11 -13 23.5t-8 28.5q-3 20 10.5 36.5t33.5 16.5q22 0 40 -17t18 -45z" />
    <glyph glyph-name="quoteleft" unicode="&#x2018;" horiz-adv-x="157" 
d="M121 533q3 -19 -10 -36t-33 -17q-23 0 -41 17t-18 45q0 25 7.5 48t32 56t59.5 51q-32 -24 -32 -61q0 -12 5 -29q2 -8 10 -22q15 -23 20 -52z" />
    <glyph glyph-name="quoteright" unicode="&#x2019;" horiz-adv-x="157" 
d="M127 655q0 -26 -8 -48.5t-31 -54.5t-60 -52q31 25 31 61q0 12 -3.5 24t-4.5 16q-2 5 -5 11q-8 11 -13 23.5t-8 28.5q-3 20 10.5 36.5t33.5 16.5q22 0 40 -17t18 -45z" />
    <glyph glyph-name="ydieresis" unicode="&#xff;" horiz-adv-x="467" 
d="M432 392q-13 -22 -13 -50v-314q0 -90 -42 -160t-114 -103q-60 -28 -107 -28q-65 0 -100 55l16 21l15 22l16 20l17 22q-4 -12 -4 -26q0 -29 21 -55q26 -30 65 -30q26 0 52.5 15t49.5 44.5t37.5 77t14.5 105.5v20l-14 -13q-14 -13 -38 -24t-52 -18q-10 -2 -23 -3t-25 -1
q-19 0 -28 2q-70 10 -109 57.5t-39 127.5q0 61 34 116l16 25q1 3 1 11q0 11 -5 24t-19 33l-17 27h106l4 -2q2 -5 5 -10q1 -2 1 -5t-8 -19q-17 -34 -30 -59t-18.5 -60t-5.5 -67q0 -77 33 -117t98 -46q9 -1 25 -1q50 0 79 20.5t29 46.5v245q0 19 -11 38q-7 13 -17 22.5
t-18 13.5h122zM333 498q-12 -13 -29 -13t-29 12t-12 29t12.5 28.5t28.5 11.5t28 -11t12 -29t-11 -28zM195 498q-12 -13 -29 -13t-29 12t-12 29t12.5 28.5t28.5 11.5t28 -11t12 -29t-11 -28z" />
    <glyph glyph-name="Ydieresis" unicode="&#x178;" 
d="M651 115q0 -162 -85 -249t-250 -87q-25 0 -58 3t-66 8q-57 11 -107 34q29 11 49 22t46 32l9 6l7 6q21 -37 62 -58.5t98 -21.5h16q12 2 18 2q78 8 117 59t62 177l4 28q-36 -37 -84 -58.5t-112 -28.5q-8 0 -19.5 -1t-24.5 -1q-125 0 -206 75.5t-97 212.5q-2 10 -2 21.5
v17.5q0 106 74 218q22 34 32 45q22 27 22 38q0 15 -42 53q-9 10 -20 14l-2 3q0 9 3 13q1 1 3 2h133q7 -2 9 -4q7 -5 7 -9t-28 -38q-37 -38 -70 -127q-21 -54 -27 -117q-3 -20 -4 -40t-1 -45q0 -145 66 -224q63 -76 172 -76q14 0 28.5 1t30.5 4.5t24.5 6t29.5 10.5
q56 25 81.5 52.5t25.5 56.5v430q0 35 -14 56t-53 46l-8 13l11 4h140v-585zM456 762q-12 -13 -29 -13t-29 12t-12 29t12.5 28.5t28.5 11.5t28 -11t12 -29t-11 -28zM318 762q-12 -13 -29 -13t-29 12t-12 29t12.5 28.5t28.5 11.5t28 -11t12 -29t-11 -28z" />
    <glyph glyph-name="currency" unicode="&#xa4;" horiz-adv-x="578" 
d="M544 137l-37 -42l-48 48q-44 -39 -78 -56q-42 -21 -91 -21q-48 0 -89 21q-33 17 -78 57l-49 -46l-37 33l55 48q-25 36 -36 71.5t-11 78.5q0 47 9.5 81t35.5 72l-53 44l31 36l51 -45q46 40 79 56q42 20 92 20q49 0 92 -21q34 -17 78 -56l47 48l37 -38l-54 -45
q23 -38 33 -72.5t10 -79.5t-10 -78.5t-35 -72.5zM470 329q0 97 -45 167q-50 78 -135 78t-136 -77q-46 -69 -46 -168q0 -97 46 -166q51 -76 136 -76t135 76q45 68 45 166z" />
    <glyph glyph-name="periodcentered" unicode="&#xb7;" horiz-adv-x="200" 
d="M143 301q-17 -17 -39 -17q-21 0 -37.5 16.5t-16.5 38.5t17 38t37 16q21 0 38 -16t17 -38q0 -23 -16 -38z" />
    <glyph glyph-name="periodcentered" unicode="&#x2219;" horiz-adv-x="200" 
d="M143 301q-17 -17 -39 -17q-21 0 -37.5 16.5t-16.5 38.5t17 38t37 16q21 0 38 -16t17 -38q0 -23 -16 -38z" />
    <glyph glyph-name="Acircumflex" unicode="&#xc2;" horiz-adv-x="669" 
d="M689 0h-123q-15 44 -30 80t-47 106l-31 67l-21 43q-11 26 -21 44.5t-20 39.5l-8 16l-10 18l-20 -26l-15 -19l-83 -105l-102 -126l-83 -105l-35 -45q-13 51 -13 107q0 88 36.5 175.5t106.5 162.5q63 65 144 109l-5 12q-30 69 -62 101.5t-81 46.5l32 -1l13 -1l74 -2h12
q26 2 33 2q15 0 29 -27q29 -65 62 -138l75 -175l13 -31l60 -135q32 -75 58 -116q23 -36 62 -78zM370 430l-44 89q-34 -5 -63 -28.5t-80 -88.5q-22 -29 -38.5 -64.5t-24 -68.5t-9 -41.5t-1.5 -24.5q0 -17 -0.5 -30.5t-0.5 -24.5q0 -24 9 -33zM376 768l-14 -18l-102 40
q-18 -9 -63 -26q-15 -5 -43 -16l-8 18q42 17 63.5 33.5t50.5 52.5q22 -30 49 -49.5t67 -34.5z" />
    <glyph glyph-name="Ecircumflex" unicode="&#xca;" horiz-adv-x="761" 
d="M733 700l-6 -5l-5 -5q-18 -17 -28.5 -39t-10.5 -48v-12q-38 39 -85.5 59t-116.5 20q-21 0 -40 -0.5t-43 -4.5q-103 -17 -160.5 -61t-82.5 -106h381l25 2q76 10 122 47v-30v-56v-30l-21 14q-31 19 -58.5 26.5t-67.5 7.5h-389l-5 -12l-4 -11l-8 -26q-7 -29 -10.5 -55
t-3.5 -56q0 -91 42 -159.5t107 -105.5t143 -37q14 0 30 1.5t36 5.5q75 16 126.5 51.5t82.5 91.5v-37v-36q-73 -70 -184 -93q-60 -11 -108 -11q-151 0 -249.5 86t-112.5 225q-1 8 -1.5 15.5t-0.5 17.5q0 40 9 78q27 129 116 205q95 81 241 81l37 2h46h257zM505 768l-14 -18
l-102 40q-18 -9 -63 -26q-15 -5 -43 -16l-8 18q42 17 63.5 33.5t50.5 52.5q22 -30 49 -49.5t67 -34.5z" />
    <glyph glyph-name="Aacute" unicode="&#xc1;" horiz-adv-x="669" 
d="M689 0h-123q-15 44 -30 80t-47 106l-31 67l-21 43q-11 26 -21 44.5t-20 39.5l-8 16l-10 18l-20 -26l-15 -19l-83 -105l-102 -126l-83 -105l-35 -45q-13 51 -13 107q0 88 36.5 175.5t106.5 162.5q63 65 144 109l-5 12q-30 69 -62 101.5t-81 46.5l32 -1l13 -1l74 -2h12
q26 2 33 2q15 0 29 -27q29 -65 62 -138l75 -175l13 -31l60 -135q32 -75 58 -116q23 -36 62 -78zM370 430l-44 89q-34 -5 -63 -28.5t-80 -88.5q-22 -29 -38.5 -64.5t-24 -68.5t-9 -41.5t-1.5 -24.5q0 -17 -0.5 -30.5t-0.5 -24.5q0 -24 9 -33zM380 786l-208 -36l-8 17
q55 15 89 36t51 48q14 -24 32 -40.5t44 -24.5z" />
    <glyph glyph-name="Edieresis" unicode="&#xcb;" horiz-adv-x="761" 
d="M733 700l-6 -5l-5 -5q-18 -17 -28.5 -39t-10.5 -48v-12q-38 39 -85.5 59t-116.5 20q-21 0 -40 -0.5t-43 -4.5q-103 -17 -160.5 -61t-82.5 -106h381l25 2q76 10 122 47v-30v-56v-30l-21 14q-31 19 -58.5 26.5t-67.5 7.5h-389l-5 -12l-4 -11l-8 -26q-7 -29 -10.5 -55
t-3.5 -56q0 -91 42 -159.5t107 -105.5t143 -37q14 0 30 1.5t36 5.5q75 16 126.5 51.5t82.5 91.5v-37v-36q-73 -70 -184 -93q-60 -11 -108 -11q-151 0 -249.5 86t-112.5 225q-1 8 -1.5 15.5t-0.5 17.5q0 40 9 78q27 129 116 205q95 81 241 81l37 2h46h257zM498 762
q-12 -13 -29 -13t-29 12t-12 29t12.5 28.5t28.5 11.5t28 -11t12 -29t-11 -28zM360 762q-12 -13 -29 -13t-29 12t-12 29t12.5 28.5t28.5 11.5t28 -11t12 -29t-11 -28z" />
    <glyph glyph-name="Egrave" unicode="&#xc8;" horiz-adv-x="761" 
d="M733 700l-6 -5l-5 -5q-18 -17 -28.5 -39t-10.5 -48v-12q-38 39 -85.5 59t-116.5 20q-21 0 -40 -0.5t-43 -4.5q-103 -17 -160.5 -61t-82.5 -106h381l25 2q76 10 122 47v-30v-56v-30l-21 14q-31 19 -58.5 26.5t-67.5 7.5h-389l-5 -12l-4 -11l-8 -26q-7 -29 -10.5 -55
t-3.5 -56q0 -91 42 -159.5t107 -105.5t143 -37q14 0 30 1.5t36 5.5q75 16 126.5 51.5t82.5 91.5v-37v-36q-73 -70 -184 -93q-60 -11 -108 -11q-151 0 -249.5 86t-112.5 225q-1 8 -1.5 15.5t-0.5 17.5q0 40 9 78q27 129 116 205q95 81 241 81l37 2h46h257zM487 767l-8 -17
l-208 36q27 8 44 23t32 42q18 -27 50.5 -47.5t89.5 -36.5z" />
    <glyph glyph-name="Iacute" unicode="&#xcd;" horiz-adv-x="220" 
d="M163 0h-111q10 19 14 37t4 50v479q0 43 -16.5 66.5t-67.5 53.5q-12 8 -35 14h197v-613q0 -30 3 -49t12 -38zM176 786l-208 -36l-8 17q55 15 89 36t51 48q14 -24 32 -40.5t44 -24.5z" />
    <glyph glyph-name="Icircumflex" unicode="&#xce;" horiz-adv-x="220" 
d="M163 0h-111q10 19 14 37t4 50v479q0 43 -16.5 66.5t-67.5 53.5q-12 8 -35 14h197v-613q0 -30 3 -49t12 -38zM202 768l-14 -18l-102 40q-18 -9 -63 -26q-15 -5 -43 -16l-8 18q42 17 63.5 33.5t50.5 52.5q22 -30 49 -49.5t67 -34.5z" />
    <glyph glyph-name="Idieresis" unicode="&#xcf;" horiz-adv-x="220" 
d="M163 0h-111q10 19 14 37t4 50v479q0 43 -16.5 66.5t-67.5 53.5q-12 8 -35 14h197v-613q0 -30 3 -49t12 -38zM147 762q-12 -13 -29 -13t-29 12t-12 29t12.5 28.5t28.5 11.5t28 -11t12 -29t-11 -28zM9 762q-12 -13 -29 -13t-29 12t-12 29t12.5 28.5t28.5 11.5t28 -11
t12 -29t-11 -28z" />
    <glyph glyph-name="Igrave" unicode="&#xcc;" horiz-adv-x="220" 
d="M163 0h-111q10 19 14 37t4 50v479q0 43 -16.5 66.5t-67.5 53.5q-12 8 -35 14h197v-613q0 -30 3 -49t12 -38zM169 767l-8 -17l-208 36q27 8 44 23t32 42q18 -27 50.5 -47.5t89.5 -36.5z" />
    <glyph glyph-name="Oacute" unicode="&#xd3;" horiz-adv-x="828" 
d="M779 218q-37 -105 -135 -170t-230 -65q-172 0 -279 103t-107 264q0 160 106.5 263.5t279.5 103.5q171 0 279.5 -103.5t108.5 -257.5q0 -36 -5 -68t-18 -70zM707 350q0 125 -55.5 210.5t-150.5 117.5q-40 13 -87 13q-46 0 -86 -13q-95 -31 -149 -115q-57 -88 -57 -213
t55.5 -211t150.5 -117q44 -14 86 -14q43 0 87 14q95 31 150.5 117t55.5 211zM515 786l-208 -36l-8 17q55 15 89 36t51 48q14 -24 32 -40.5t44 -24.5z" />
    <glyph glyph-name="Ocircumflex" unicode="&#xd4;" horiz-adv-x="828" 
d="M779 218q-37 -105 -135 -170t-230 -65q-172 0 -279 103t-107 264q0 160 106.5 263.5t279.5 103.5q171 0 279.5 -103.5t108.5 -257.5q0 -36 -5 -68t-18 -70zM707 350q0 125 -55.5 210.5t-150.5 117.5q-40 13 -87 13q-46 0 -86 -13q-95 -31 -149 -115q-57 -88 -57 -213
t55.5 -211t150.5 -117q44 -14 86 -14q43 0 87 14q95 31 150.5 117t55.5 211zM532 768l-14 -18l-102 40q-18 -9 -63 -26q-15 -5 -43 -16l-8 18q42 17 63.5 33.5t50.5 52.5q22 -30 49 -49.5t67 -34.5z" />
    <glyph glyph-name="Ograve" unicode="&#xd2;" horiz-adv-x="828" 
d="M779 218q-37 -105 -135 -170t-230 -65q-172 0 -279 103t-107 264q0 160 106.5 263.5t279.5 103.5q171 0 279.5 -103.5t108.5 -257.5q0 -36 -5 -68t-18 -70zM707 350q0 125 -55.5 210.5t-150.5 117.5q-40 13 -87 13q-46 0 -86 -13q-95 -31 -149 -115q-57 -88 -57 -213
t55.5 -211t150.5 -117q44 -14 86 -14q43 0 87 14q95 31 150.5 117t55.5 211zM487 767l-8 -17l-208 36q27 8 44 23t32 42q18 -27 50.5 -47.5t89.5 -36.5z" />
    <glyph glyph-name="Uacute" unicode="&#xda;" 
d="M651 0h-76v81l-24 -15l-11 -8l-37 -24l-10 -7q-22 -15 -68.5 -27.5t-94.5 -12.5q-122 0 -203 76t-97 212q-2 10 -2 21.5v17.5q0 106 74 218q22 34 32 45q22 27 22 38q0 15 -42 54q-11 9 -20 13q-5 4 -7 12l6 6h147q11 0 6 -12q-1 -4 -10 -16q-16 -22 -17 -23
q-38 -41 -69 -126q-22 -54 -28 -118q-3 -21 -4 -52.5t-1 -33.5q0 -144 65 -222q62 -75 171 -75q28 0 57 5t58 18q56 24 81.5 50.5t25.5 55.5v430q0 32 -11 51.5t-44 49.5l-20 18h151v-700zM458 786l-208 -36l-8 17q55 15 89 36t51 48q14 -24 32 -40.5t44 -24.5z" />
    <glyph glyph-name="Ucircumflex" unicode="&#xdb;" 
d="M651 0h-76v81l-24 -15l-11 -8l-37 -24l-10 -7q-22 -15 -68.5 -27.5t-94.5 -12.5q-122 0 -203 76t-97 212q-2 10 -2 21.5v17.5q0 106 74 218q22 34 32 45q22 27 22 38q0 15 -42 54q-11 9 -20 13q-5 4 -7 12l6 6h147q11 0 6 -12q-1 -4 -10 -16q-16 -22 -17 -23
q-38 -41 -69 -126q-22 -54 -28 -118q-3 -21 -4 -52.5t-1 -33.5q0 -144 65 -222q62 -75 171 -75q28 0 57 5t58 18q56 24 81.5 50.5t25.5 55.5v430q0 32 -11 51.5t-44 49.5l-20 18h151v-700zM457 768l-14 -18l-102 40q-18 -9 -63 -26q-15 -5 -43 -16l-8 18q42 17 63.5 33.5
t50.5 52.5q22 -30 49 -49.5t67 -34.5z" />
    <glyph glyph-name="Ugrave" unicode="&#xd9;" 
d="M651 0h-76v81l-24 -15l-11 -8l-37 -24l-10 -7q-22 -15 -68.5 -27.5t-94.5 -12.5q-122 0 -203 76t-97 212q-2 10 -2 21.5v17.5q0 106 74 218q22 34 32 45q22 27 22 38q0 15 -42 54q-11 9 -20 13q-5 4 -7 12l6 6h147q11 0 6 -12q-1 -4 -10 -16q-16 -22 -17 -23
q-38 -41 -69 -126q-22 -54 -28 -118q-3 -21 -4 -52.5t-1 -33.5q0 -144 65 -222q62 -75 171 -75q28 0 57 5t58 18q56 24 81.5 50.5t25.5 55.5v430q0 32 -11 51.5t-44 49.5l-20 18h151v-700zM463 767l-8 -17l-208 36q27 8 44 23t32 42q18 -27 50.5 -47.5t89.5 -36.5z" />
    <glyph glyph-name="circumflex" unicode="&#x2c6;" horiz-adv-x="0" 
d="M346 504l-14 -18l-102 40q-18 -9 -63 -26q-15 -5 -43 -16l-8 18q42 17 63.5 33.5t50.5 52.5q22 -30 49 -49.5t67 -34.5z" />
    <glyph glyph-name="tilde" unicode="&#x2dc;" horiz-adv-x="0" 
d="M338 532l-3 -6q-10 -18 -19 -26q-5 -5 -20 -14q-14 5 -25 11q-23 11 -46 23q-12 6 -32 6q-14 0 -29 -4.5t-33 -15.5q-5 -3 -13.5 -10.5t-13.5 -12.5l-11 16l55 34l7 1l13 6q10 4 23 6t25 2q34 0 68 -16q13 -5 23 -5t23 4z" />
    <glyph glyph-name="macron" unicode="&#xaf;" horiz-adv-x="0" 
d="M364 530l-33 -44h-249l33 44h249z" />
    <glyph glyph-name="cedilla" unicode="&#xb8;" horiz-adv-x="0" 
d="M253 7l-24 -37q30 -42 30 -79q0 -53 -52 -77q-29 -13 -50 -13t-35.5 11t-26.5 31l38 51q-3 -8 -3 -17q0 -18 13 -31q22 -25 44 -25t45 29q3 5 3 11q0 14 -14 40q-9 16 -27 44l45 62h14z" />
  </font>
</defs>
</svg>
